<?xml version="1.0" encoding="UTF-8" standalone="no"?>
<!-- Created with Inkscape (http://www.inkscape.org/) -->

<svg
   version="1.1"
   id="svg1"
   width="775.22797"
   height="483.19659"
   viewBox="0 0 775.22797 483.1966"
   sodipodi:docname="esaai_appraise_screenshot.svg"
   inkscape:version="1.4 (1:1.4+202410161351+e7c3feb100)"
   xmlns:inkscape="http://www.inkscape.org/namespaces/inkscape"
   xmlns:sodipodi="http://sodipodi.sourceforge.net/DTD/sodipodi-0.dtd"
   xmlns="http://www.w3.org/2000/svg"
   xmlns:svg="http://www.w3.org/2000/svg">
  <defs
     id="defs1" />
  <sodipodi:namedview
     id="namedview1"
     pagecolor="#ffffff"
     bordercolor="#000000"
     borderopacity="0.25"
     inkscape:showpageshadow="2"
     inkscape:pageopacity="0.0"
     inkscape:pagecheckerboard="0"
     inkscape:deskcolor="#d1d1d1"
     inkscape:zoom="1.0409841"
     inkscape:cx="477.91314"
     inkscape:cy="209.41721"
     inkscape:window-width="2560"
     inkscape:window-height="1011"
     inkscape:window-x="0"
     inkscape:window-y="32"
     inkscape:window-maximized="1"
     inkscape:current-layer="g1">
    <inkscape:page
       x="0"
       y="0"
       inkscape:label="1"
       id="page1"
       width="775.22797"
       height="483.19659"
       margin="0"
       bleed="0" />
  </sodipodi:namedview>
  <g
     id="g1"
     inkscape:groupmode="layer"
     inkscape:label="1"
     transform="translate(11.527553,15.37007)">
    <rect
       style="fill:#ffffff;fill-opacity:1;stroke:none;stroke-width:1.88976;stroke-linecap:round"
       id="rect1"
       width="775.22797"
       height="483.19659"
       x="-11.527553"
       y="-15.37007" />
    <path
       id="path1"
       d="m 6.203,0 h 540.32 V 122.5 H 6.203 Z"
       style="fill:#f5f5f5;fill-opacity:1;fill-rule:nonzero;stroke:none"
       transform="scale(1.3333333)" />
    <path
       id="path2"
       d="M 0,0 H 6.203 V 122.5 H 0 Z"
       style="fill:#dddddd;fill-opacity:1;fill-rule:nonzero;stroke:none"
       transform="scale(1.3333333)" />
    <text
       id="text2"
       xml:space="preserve"
       transform="matrix(1.3333333,0,0,1.3333333,18.196513,33.550701)"><tspan
         id="tspan2"
         style="font-style:italic;font-variant:normal;font-weight:normal;font-size:22px;font-family:'DIN Next W1G';writing-mode:lr-tb;fill:#000000;fill-opacity:1;fill-rule:nonzero;stroke:none"
         x="0"
         dx="0 -0.37399957 -0.37399957 -0.37399957 -0.37399957 -0.37399957 -0.37399957 -0.37399957 -0.37399957 -0.37399957 -0.37399957 -0.39599952 -0.37399957 -0.37399957 -0.37399957 -0.37399957 -0.37399957 -0.37399957 -0.37399957 -0.37399957 -0.37399957 -0.37399957 -0.37399957 -0.37399957 -0.37399957 -0.37399957 -0.90199894 -0.37399957 -0.37399957 -0.37399957 -0.37399957 -0.37399957 -0.37399957 -0.39599952 -0.37399957 -0.37399957 -0.37399957 -0.37399957 -1.8259978"
         y="0">This is a very nice skirt. Real classy.</tspan></text>
    <path
       id="path3"
       d="m 174.293,57.188 h 57.551 c 3.14,0 5.668,2.527 5.668,5.667 v 13.684 c 0,3.141 -2.528,5.668 -5.668,5.668 h -57.551 c -3.141,0 -5.668,-2.527 -5.668,-5.668 V 62.855 c 0,-3.14 2.527,-5.667 5.668,-5.667 z"
       style="fill:#d77c7c;fill-opacity:1;fill-rule:nonzero;stroke:none"
       transform="scale(1.3333333)" />
    <path
       id="path4"
       d="m 82.387,57.188 h 35.816 c 2.082,0 3.762,1.675 3.762,3.761 v 17.496 c 0,2.086 -1.68,3.762 -3.762,3.762 H 82.387 c -2.086,0 -3.762,-1.676 -3.762,-3.762 V 60.949 c 0,-2.086 1.676,-3.761 3.762,-3.761 z"
       style="fill:#d77c7c;fill-opacity:1;fill-rule:nonzero;stroke:none"
       transform="scale(1.3333333)" />
    <path
       id="path5"
       d="m 343.414,57.555 h 54.031 c 2.93,0 5.289,2.359 5.289,5.289 v 15.445 c 0,2.93 -2.359,5.289 -5.289,5.289 h -54.031 c -2.93,0 -5.289,-2.359 -5.289,-5.289 V 62.844 c 0,-2.93 2.359,-5.289 5.289,-5.289 z"
       style="fill:#f9cbcb;fill-opacity:1;fill-rule:nonzero;stroke:none"
       transform="scale(1.3333333)" />
    <text
       id="text5"
       xml:space="preserve"
       transform="matrix(1.3333333,0,0,1.3333333,17.721449,102.8474)"><tspan
         id="tspan5"
         style="font-variant:normal;font-weight:normal;font-size:24px;font-family:'DIN Next W1G';writing-mode:lr-tb;fill:#000000;fill-opacity:1;fill-rule:nonzero;stroke:none"
         x="0"
         dx="0 -1.224 -1.248 -1.224 -1.224 -1.224 -1.248 -1.224 -1.224 -1.224 -1.248 -1.224 -1.224 -1.224 -1.248 -1.224 -1.224 -1.224 -1.248 -1.224 -1.224 -1.224 -1.248 -1.224 -1.224 -1.224 -1.248 -1.224 -1.224 -1.224 2.7839999 -1.224 -1.224 -1.248 -1.224 -1.224 -1.224 -1.248 -1.224 -1.3200001 -1.224 -1.248 -1.272 -1.104 -1.728"
         y="0">Das ist eine sehr schöne Rock.Echt stilvoll. </tspan></text>
    <text
       id="text6"
       xml:space="preserve"
       transform="matrix(1.3333333,0,0,1.3333333,549.08924,102.8474)"><tspan
         id="tspan6"
         style="font-variant:normal;font-weight:700;font-size:20px;font-family:'DejaVu Sans Mono';writing-mode:lr-tb;fill:#000000;fill-opacity:1;fill-rule:nonzero;stroke:none"
         x="0"
         dx="0 -1.2200016 -1.2400016 -1.2200016 -1.2400016 -1.2200016 -1.2400016 -1.2200016 -1.2400016"
         y="0">[MISSING]</tspan></text>
    <text
       id="text7"
       xml:space="preserve"
       transform="matrix(1.3333333,0,0,1.3333333,113.58333,74.323324)"><tspan
         id="tspan7"
         style="font-style:italic;font-variant:normal;font-weight:normal;font-size:14px;font-family:'DIN Next W1G';writing-mode:lr-tb;fill:#737373;fill-opacity:1;fill-rule:nonzero;stroke:none"
         x="0"
         dx="0 -1.2320023 -1.2320023 -1.2320023 -1.2180022 75.824135 -1.2320023 -1.2320023 -1.2320023 -1.2180022 135.65576 -1.2320023 -1.2320023 -1.2320023 -1.2180022"
         y="0">majormajorminor</tspan></text>
    <path
       id="path7"
       d="m 6.203,141 h 540.32 V 328.742 H 6.203 Z"
       style="fill:#f5f5f5;fill-opacity:1;fill-rule:nonzero;stroke:none"
       transform="scale(1.3333333)" />
    <path
       id="path8"
       d="M 0,141 H 6.203 V 328.742 H 0 Z"
       style="fill:#dddddd;fill-opacity:1;fill-rule:nonzero;stroke:none"
       transform="scale(1.3333333)" />
    <text
       id="text8"
       xml:space="preserve"
       transform="matrix(1.3333333,0,0,1.3333333,18.196513,219.55085)"><tspan
         id="tspan8"
         style="font-style:italic;font-variant:normal;font-weight:normal;font-size:22px;font-family:'DIN Next W1G';writing-mode:lr-tb;fill:#000000;fill-opacity:1;fill-rule:nonzero;stroke:none"
         x="0"
         dx="0 -0.37399957 -0.37399957 -0.37399957 -0.37399957 -0.37399957 -0.37399957 -0.37399957 -0.37399957 -0.37399957 -0.37399957 -0.39599952 -0.37399957 -0.37399957 -0.37399957 -0.37399957 -0.37399957 -0.37399957 -0.37399957 -0.37399957 -0.37399957 -0.37399957 -0.37399957 -0.37399957 -0.37399957 -0.37399957 -0.90199894 -0.37399957 -0.37399957 -0.37399957 -0.37399957 -0.37399957 -0.37399957 -0.39599952 -0.37399957 -0.37399957 -0.37399957 -0.37399957 -1.8259978"
         y="0">This is a very nice skirt. Real classy.</tspan></text>
    <path
       id="path9"
       d="m 174.293,198.188 h 59.094 c 3.14,0 5.668,2.527 5.668,5.667 v 12.262 c 0,3.141 -2.528,5.668 -5.668,5.668 h -59.094 c -3.141,0 -5.668,-2.527 -5.668,-5.668 v -12.262 c 0,-3.14 2.527,-5.667 5.668,-5.667 z"
       style="fill:#f9cbcb;fill-opacity:1;fill-rule:nonzero;stroke:none"
       transform="scale(1.3333333)" />
    <path
       id="path10"
       d="m 80.887,198.188 h 35.617 c 2.082,0 3.762,1.675 3.762,3.761 v 16.074 c 0,2.086 -1.68,3.762 -3.762,3.762 H 80.887 c -2.086,0 -3.762,-1.676 -3.762,-3.762 v -16.074 c 0,-2.086 1.676,-3.761 3.762,-3.761 z"
       style="fill:#f9cbcb;fill-opacity:1;fill-rule:nonzero;stroke:none"
       transform="scale(1.3333333)" />
    <text
       id="text10"
       xml:space="preserve"
       transform="matrix(1.3333333,0,0,1.3333333,17.721449,289.24762)"><tspan
         id="tspan10"
         style="font-variant:normal;font-weight:normal;font-size:24px;font-family:'DIN Next W1G';writing-mode:lr-tb;fill:#000000;fill-opacity:1;fill-rule:nonzero;stroke:none"
         x="0"
         dx="0 -1.224 -1.248 -1.224 -1.224 -1.224 -1.248 -1.224 -1.224 -1.224 -1.248 -1.224 -1.224 -1.224 -1.248 -1.224 -1.224 -1.224 -1.248 -1.224 -1.224 -1.224 -1.248 -1.224 -1.224 -1.224 -1.248 -1.224 -1.224 -1.224 2.7839999 -1.224 -1.224 -1.248 -1.224 -1.224 -1.224 -1.248 -1.224 -1.3200001 -1.224 -1.248 -1.272 -1.104 -1.728"
         y="0">Das ist eine sehr schöne Rock.Echt stilvoll. </tspan></text>
    <text
       id="text11"
       xml:space="preserve"
       transform="matrix(1.3333333,0,0,1.3333333,549.08924,289.24762)"><tspan
         id="tspan11"
         style="font-variant:normal;font-weight:700;font-size:20px;font-family:'DejaVu Sans Mono';writing-mode:lr-tb;fill:#000000;fill-opacity:1;fill-rule:nonzero;stroke:none"
         x="0"
         dx="0 -1.2200016 -1.2400016 -1.2200016 -1.2400016 -1.2200016 -1.2400016 -1.2200016 -1.2400016"
         y="0">[MISSING]</tspan></text>
    <path
       id="path11"
       d="m 28.41,273.398 h 488.555 c 3.14,0 5.672,2.528 5.672,5.668 v 9.946 c 0,3.144 -2.532,5.672 -5.672,5.672 H 28.41 c -3.14,0 -5.672,-2.528 -5.672,-5.672 v -9.946 c 0,-3.14 2.532,-5.668 5.672,-5.668 z"
       style="fill:#ffffff;fill-opacity:1;fill-rule:nonzero;stroke:#000000;stroke-width:2.47644;stroke-linecap:round;stroke-linejoin:miter;stroke-miterlimit:1;stroke-dasharray:none;stroke-opacity:1"
       transform="scale(1.3333333)" />
    <path
       id="path12"
       d="m 26.648,273.398 h 336.778 c 2.164,0 3.906,1.743 3.906,3.907 v 13.468 c 0,2.168 -1.742,3.911 -3.906,3.911 H 26.648 c -2.164,0 -3.91,-1.743 -3.91,-3.911 v -13.468 c 0,-2.164 1.746,-3.907 3.91,-3.907 z"
       style="fill:#8ed28a;fill-opacity:1;fill-rule:nonzero;stroke:#000000;stroke-width:2.05609;stroke-linecap:round;stroke-linejoin:miter;stroke-miterlimit:1;stroke-dasharray:none;stroke-opacity:1"
       transform="scale(1.3333333)" />
    <path
       id="path13"
       d="m 352.109,266.633 h 24.207 c 3.141,0 5.668,2.531 5.668,5.672 v 23.086 c 0,3.14 -2.527,5.668 -5.668,5.668 h -24.207 c -3.144,0 -5.671,-2.528 -5.671,-5.668 v -23.086 c 0,-3.141 2.527,-5.672 5.671,-5.672 z"
       style="fill:#ababab;fill-opacity:1;fill-rule:nonzero;stroke:#000000;stroke-width:2.54781;stroke-linecap:round;stroke-linejoin:miter;stroke-miterlimit:1;stroke-dasharray:none;stroke-opacity:1"
       transform="scale(1.3333333)" />
    <text
       id="text13"
       xml:space="preserve"
       transform="matrix(1.3333333,0,0,1.3333333,17.246111,335.82814)"><tspan
         id="tspan13"
         style="font-variant:normal;font-weight:normal;font-size:13px;font-family:'DIN Next W1G';writing-mode:lr-tb;fill:#737373;fill-opacity:1;fill-rule:nonzero;stroke:none"
         x="0"
         dx="0 -1.2349976 -1.2219976 -1.2349976 -1.2219976 -1.2349976 -1.2349976 -1.2219976 -1.2349976 -1.2349976 -1.2219976 -1.2349976 -1.2219976 -1.2349976"
         y="0">0% no meaning </tspan><tspan
         id="tspan14"
         style="font-variant:normal;font-weight:normal;font-size:13px;font-family:'DIN Next W1G';writing-mode:lr-tb;fill:#737373;fill-opacity:1;fill-rule:nonzero;stroke:none"
         x="0"
         dx="0 -1.2349976 -1.2219976 -1.2349976 -1.2219976 -1.2349976 -1.2349976 -1.2219976 -1.2349976"
         y="10.786924">preserved</tspan><tspan
         id="tspan15"
         style="font-variant:normal;font-weight:normal;font-size:13px;font-family:'DIN Next W1G';writing-mode:lr-tb;fill:#737373;fill-opacity:1;fill-rule:nonzero;stroke:none"
         x="481.7468"
         dx="0 -1.2349976 -1.2219976 -1.2349976"
         y="0">100%</tspan><tspan
         id="tspan16"
         style="font-variant:normal;font-weight:normal;font-size:13px;font-family:'DIN Next W1G';writing-mode:lr-tb;fill:#737373;fill-opacity:1;fill-rule:nonzero;stroke:none"
         x="476.6748"
         dx="0 -1.2349976 -1.2219976 -1.2349976 -1.2219976 -1.2349976 -1.2349976"
         y="10.786924">perfect</tspan><tspan
         id="tspan17"
         style="font-variant:normal;font-weight:normal;font-size:13px;font-family:'DIN Next W1G';writing-mode:lr-tb;fill:#737373;fill-opacity:1;fill-rule:nonzero;stroke:none"
         x="352.00851"
         dx="0 -1.2349976 -1.2219976 -1.2349976 -1.2219976 -1.2349976 -1.2349976 -1.2219976"
         y="0">66% most</tspan><tspan
         id="tspan18"
         style="font-variant:normal;font-weight:normal;font-size:13px;font-family:'DIN Next W1G';writing-mode:lr-tb;fill:#737373;fill-opacity:1;fill-rule:nonzero;stroke:none"
         x="330.82211"
         dx="0 -1.2349976 -1.2219976 -1.2349976 -1.2219976 -1.2349976 -1.2349976 -1.2219976 -1.2349976 -1.2349976 -1.2219976 -1.2349976 -1.2219976 -1.2349976 -1.2349976 -1.2219976 -1.2349976"
         y="10.786924">meaning preserved</tspan><tspan
         id="tspan19"
         style="font-variant:normal;font-weight:normal;font-size:13px;font-family:'DIN Next W1G';writing-mode:lr-tb;fill:#737373;fill-opacity:1;fill-rule:nonzero;stroke:none"
         x="170.73448"
         dx="0 -1.2349976 -1.2219976 -1.2349976 -1.2219976 -1.2349976 -1.2349976 -1.2219976"
         y="0">33% some</tspan><tspan
         id="tspan20"
         style="font-variant:normal;font-weight:normal;font-size:13px;font-family:'DIN Next W1G';writing-mode:lr-tb;fill:#737373;fill-opacity:1;fill-rule:nonzero;stroke:none"
         x="150.82205"
         dx="0 -1.2349976 -1.2219976 -1.2349976 -1.2219976 -1.2349976 -1.2349976 -1.2219976 -1.2349976 -1.2349976 -1.2219976 -1.2349976 -1.2219976 -1.2349976 -1.2349976 -1.2219976 -1.2349976"
         y="10.786924">meaning preserved</tspan></text>
    <text
       id="text20"
       xml:space="preserve"
       transform="matrix(1.3333333,0,0,1.3333333,115.35933,262.32326)"><tspan
         id="tspan21"
         style="font-style:italic;font-variant:normal;font-weight:normal;font-size:14px;font-family:'DIN Next W1G';writing-mode:lr-tb;fill:#737373;fill-opacity:1;fill-rule:nonzero;stroke:none"
         x="0"
         dx="0 -1.2320023 -1.2320023 -1.2320023 -1.2180022 73.990135 -1.2320023 -1.2320023 -1.2320023 -1.2320023"
         y="0">minorminor</tspan></text>
    <path
       id="path21"
       d="m 538.504,108.727 c 0,2.867 -2.324,5.195 -5.195,5.195 -2.868,0 -5.192,-2.328 -5.192,-5.195 0,-2.868 2.324,-5.192 5.192,-5.192 2.871,0 5.195,2.324 5.195,5.192 z"
       style="fill:#ffffff;fill-opacity:1;fill-rule:nonzero;stroke:none"
       transform="scale(1.3333333)" />
    <path
       id="path22"
       d="m 547.383,104.012 c 0,0 -1.68,-0.414 -1,-1.918 l 4.168,-6.922 -3.375,-3.164 -0.676,-0.633 -6.605,4.34 c -0.872,0.39 -1.883,-0.106 -2.11,-1.035 l -1.746,-7.231 h -5.551 l -1.742,7.203 c -0.223,0.914 -1.211,1.461 -2.074,1.082 -0.016,-0.004 -0.027,-0.011 -0.043,-0.015 l -6.602,-4.34 -0.675,0.633 -3.379,3.16 4.168,6.922 c 0.679,1.504 -1,1.922 -1,1.922 l -7.844,1.949 0.152,4.621 0.031,0.926 7.739,1.601 c 0.883,0.336 1.25,1.383 0.773,2.196 l -0.031,0.05 -4.168,6.926 3.379,3.16 0.676,0.633 6.605,-4.34 c 0.012,-0.004 0.027,-0.011 0.039,-0.019 0,0 0.012,-0.004 0.031,-0.008 1.075,-0.348 2.215,0.32 2.481,1.418 l 1.66,6.875 h 5.555 l 1.746,-7.231 c 0.223,-0.925 1.234,-1.425 2.109,-1.035 l 6.602,4.34 0.676,-0.633 3.378,-3.16 -4.168,-6.926 -0.031,-0.05 c -0.476,-0.817 -0.105,-1.864 0.774,-2.2 l 7.738,-1.597 0.031,-0.926 0.153,-4.625 z m -14.121,13.965 c -5.11,0 -9.254,-4.141 -9.254,-9.25 0,-5.11 4.144,-9.25 9.254,-9.25 5.113,0 9.254,4.14 9.254,9.25 0,5.109 -4.141,9.25 -9.254,9.25 z"
       style="fill:#d0cfce;fill-opacity:1;fill-rule:nonzero;stroke:none"
       transform="scale(1.3333333)" />
    <path
       id="path23"
       d="m 533.262,99.477 c -5.11,0 -9.254,4.14 -9.254,9.25 0,5.109 4.144,9.25 9.254,9.25 5.113,0 9.254,-4.141 9.254,-9.25 0,-5.11 -4.141,-9.25 -9.254,-9.25 z m 0,13.875 c -2.555,0 -4.625,-2.071 -4.625,-4.625 0,-2.555 2.07,-4.625 4.625,-4.625 2.554,0 4.629,2.07 4.629,4.625 0,2.554 -2.075,4.625 -4.629,4.625 z"
       style="fill:#9b9b9a;fill-opacity:1;fill-rule:nonzero;stroke:none"
       transform="scale(1.3333333)" />
    <path
       id="path24"
       d="m 537.891,108.76 c 0,2.555 -2.075,4.626 -4.629,4.626 -2.555,0 -4.625,-2.071 -4.625,-4.626 0,-2.556 2.07,-4.627 4.625,-4.627 2.554,0 4.629,2.071 4.629,4.627 z"
       style="fill:none;stroke:#000000;stroke-width:2.28972;stroke-linecap:round;stroke-linejoin:round;stroke-miterlimit:4;stroke-dasharray:none;stroke-opacity:1"
       transform="scale(1.3333333,1.3329253)" />
    <path
       id="path25"
       d="m 542.516,108.76 c 0,5.111 -4.141,9.253 -9.254,9.253 -5.11,0 -9.254,-4.142 -9.254,-9.253 0,-5.111 4.144,-9.253 9.254,-9.253 5.113,0 9.254,4.142 9.254,9.253 z"
       style="fill:none;stroke:#000000;stroke-width:2.28972;stroke-linecap:round;stroke-linejoin:round;stroke-miterlimit:4;stroke-dasharray:none;stroke-opacity:1"
       transform="scale(1.3333333,1.3329253)" />
    <path
       id="path26"
       d="m 528.746,94.681 c -0.223,0.915 -1.215,1.462 -2.074,1.083 -0.016,-0.004 -0.027,-0.012 -0.043,-0.016 l -6.602,-4.341 -0.675,0.633 -3.379,3.161 4.168,6.924 c 0.679,1.504 -1,1.922 -1,1.922 l -7.844,1.95 0.152,4.623 0.031,0.926 7.739,1.602 c 0.883,0.336 1.25,1.383 0.773,2.196 l -0.031,0.051 -4.168,6.928 3.379,3.161 0.676,0.633 6.605,-4.341 c 0.012,-0.004 0.027,-0.012 0.039,-0.016 0,0 0.012,-0.004 0.031,-0.012 1.075,-0.348 2.215,0.321 2.481,1.419 l 1.66,6.877 h 5.551 l 1.746,-7.233 c 0.227,-0.926 1.238,-1.426 2.109,-1.035 l 6.606,4.341 0.676,-0.633 3.378,-3.161 -4.168,-6.928 -0.031,-0.051 c -0.476,-0.817 -0.109,-1.864 0.774,-2.2 l 7.738,-1.598 0.031,-0.926 0.153,-4.627 -7.844,-1.949 c 0,0 -1.68,-0.415 -1,-1.919 l 4.168,-6.924 -4.055,-3.798 -6.601,4.341 c -0.872,0.391 -1.887,-0.105 -2.11,-1.035 l -1.746,-7.233 h -5.555 z"
       style="fill:none;stroke:#000000;stroke-width:2.28972;stroke-linecap:round;stroke-linejoin:round;stroke-miterlimit:4;stroke-dasharray:none;stroke-opacity:1"
       transform="scale(1.3333333,1.3329253)" />
    <path
       id="path27"
       d="m 513.078,336.922 c 0,0 -1.449,-12.996 9.817,-12.996 2.996,2 5.562,3.379 8.449,3.375 h -0.121 c 2.886,0.004 4.797,-2.41 7.793,-4.406 14.617,0 10.422,14.027 10.422,14.027"
       style="fill:#9b9b9a;fill-opacity:1;fill-rule:nonzero;stroke:none"
       transform="scale(1.3333333)" />
    <path
       id="path28"
       d="m 531.637,332.52 2.269,3.07 5.942,-12.488 6.414,8.914 -11.106,4.429"
       style="fill:#d0cfce;fill-opacity:1;fill-rule:nonzero;stroke:none"
       transform="scale(1.3333333)" />
    <path
       id="path29"
       d="m 533.414,335.863 c -0.559,0.973 -4.59,0.973 -5.152,0 l -1.727,-2.285 -3.18,-8.207 7.485,2.535 7.109,-2.535 -3.086,8.207 z"
       style="fill:#ffffff;fill-opacity:1;fill-rule:nonzero;stroke:none"
       transform="scale(1.3333333)" />
    <path
       id="path30"
       d="m 528.672,327.195 c 0,0 -1.133,5.653 2.168,5.653 3.297,0 2.164,-5.653 2.164,-5.653"
       style="fill:#3f3f3f;fill-opacity:1;fill-rule:nonzero;stroke:none"
       transform="scale(1.3333333)" />
    <path
       id="path31"
       d="m 530.141,333.152 c 0.304,-0.527 1.066,-0.527 1.371,0 l 2.394,3.782 h -6.215 z"
       style="fill:#3f3f3f;fill-opacity:1;fill-rule:nonzero;stroke:none"
       transform="scale(1.3333333)" />
    <path
       id="path32"
       d="m 530.039,332.848 -2.266,3.152 -5.324,-12.191 -3.715,7.925 8.879,4.266"
       style="fill:#d0cfce;fill-opacity:1;fill-rule:nonzero;stroke:none"
       transform="scale(1.3333333)" />
    <path
       id="path33"
       d="m 559.332,336.539 h -14.535 v -18.594 h 14.336 c 0.109,0 0.199,0.09 0.199,0.2 z"
       style="fill:#d0cfce;fill-opacity:1;fill-rule:nonzero;stroke:none"
       transform="scale(1.3333333)" />
    <path
       id="path34"
       d="M 556.09,338.863 H 542.379 V 321.07 h 10.094 c 2,0 3.617,1.618 3.617,3.618 z"
       style="fill:#ffffff;fill-opacity:1;fill-rule:nonzero;stroke:none"
       transform="scale(1.3333333)" />
    <path
       id="path35"
       d="m 513.414,323.656 c 0.367,0.606 0.82,1.16 1.356,1.629 0.449,0.391 0.898,0.762 1.347,1.125 1.469,-1.465 3.625,-2.484 6.778,-2.484 2.976,1.984 5.531,3.359 8.394,3.371 2.848,-0.031 4.754,-2.418 7.727,-4.402 1.172,0 2.222,0.089 3.16,0.257 l 0.203,-1.554 2.476,0.015 v -3.5 l 4.727,0.004 c -0.191,-2.773 -1.32,-6.172 -3.527,-10.476 -0.125,-6.161 -0.899,-14.731 -8,-14.485 -1.743,-4.047 -23.325,-9.074 -22.465,14.801 -0.074,4.117 -4.817,9.672 -2.176,15.699 z"
       style="fill:#a57939;fill-opacity:1;fill-rule:nonzero;stroke:none"
       transform="scale(1.3333333)" />
    <path
       id="path36"
       d="m 535.75,296.547 c -1.922,3.449 -10.957,8.09 -15.367,10.101 l 0.082,0.008 c -0.074,0.633 -0.113,1.274 -0.113,1.93 0,7.352 4.765,13.309 10.644,13.309 5.879,0 10.645,-5.957 10.645,-13.309 0,-1.086 -0.106,-2.145 -0.301,-3.156 -0.735,-3.77 -2.754,-6.914 -5.445,-8.66"
       style="fill:#fadcbc;fill-opacity:1;fill-rule:nonzero;stroke:none"
       transform="scale(1.3333333)" />
    <path
       id="path37"
       d="m 514.423,323.312 -0.527,-0.867 c -2.497,-5.703 2.344,-10.961 2.414,-14.859 -0.813,-22.602 19.621,-17.84 21.266,-14.012 6.724,-0.23 7.459,7.883 7.576,13.711 1.418,2.762 2.364,5.133 2.883,7.188"
       style="fill:none;stroke:#000000;stroke-width:2.18446;stroke-linecap:round;stroke-linejoin:round;stroke-miterlimit:10;stroke-dasharray:none;stroke-opacity:1"
       transform="scale(1.3330573,1.3333333)" />
    <path
       id="path38"
       d="m 535.861,296.547 c -1.922,3.449 -10.959,8.09 -15.37,10.101 l 0.082,0.008 c -0.075,0.633 -0.114,1.274 -0.114,1.93 0,7.352 4.767,13.309 10.647,13.309 5.88,0 10.647,-5.957 10.647,-13.309 0,-1.086 -0.106,-2.145 -0.301,-3.156 -0.734,-3.77 -2.754,-6.914 -5.446,-8.66"
       style="fill:none;stroke:#000000;stroke-width:2.18446;stroke-linecap:round;stroke-linejoin:round;stroke-miterlimit:10;stroke-dasharray:none;stroke-opacity:1"
       transform="scale(1.3330573,1.3333333)" />
    <path
       id="path39"
       d="m 536.629,307.008 c 0,1.035 -0.844,1.875 -1.879,1.875 -1.035,0 -1.875,-0.84 -1.875,-1.875 0,-1.039 0.84,-1.879 1.875,-1.879 1.035,0 1.879,0.84 1.879,1.879"
       style="fill:#000000;fill-opacity:1;fill-rule:nonzero;stroke:none"
       transform="scale(1.3333333)" />
    <path
       id="path40"
       d="m 529.117,307.008 c 0,1.035 -0.84,1.875 -1.875,1.875 -1.035,0 -1.879,-0.84 -1.879,-1.875 0,-1.039 0.844,-1.879 1.879,-1.879 1.035,0 1.875,0.84 1.875,1.879"
       style="fill:#000000;fill-opacity:1;fill-rule:nonzero;stroke:none"
       transform="scale(1.3333333)" />
    <path
       id="path41"
       d="m 530.996,316.398 c -1.082,0 -2.164,-0.269 -3.234,-0.804 -0.465,-0.235 -0.653,-0.797 -0.422,-1.262 0.23,-0.461 0.793,-0.652 1.262,-0.418 1.609,0.805 3.179,0.805 4.789,0 0.464,-0.234 1.031,-0.043 1.261,0.418 0.231,0.465 0.043,1.027 -0.422,1.262 -1.07,0.535 -2.152,0.804 -3.234,0.804 z"
       style="fill:#000000;fill-opacity:1;fill-rule:nonzero;stroke:none"
       transform="scale(1.3333333)" />
    <path
       id="path42"
       d="m 528.781,327.195 c 0,0 -1.133,5.653 2.169,5.653 3.297,0 2.164,-5.653 2.164,-5.653"
       style="fill:none;stroke:#000000;stroke-width:2.18446;stroke-linecap:round;stroke-linejoin:round;stroke-miterlimit:10;stroke-dasharray:none;stroke-opacity:1"
       transform="scale(1.3330573,1.3333333)" />
    <path
       id="path43"
       d="m 539.342,333.855 -5.391,2.149"
       style="fill:none;stroke:#000000;stroke-width:2.18446;stroke-linecap:round;stroke-linejoin:round;stroke-miterlimit:10;stroke-dasharray:none;stroke-opacity:1"
       transform="scale(1.3330573,1.3333333)" />
    <path
       id="path44"
       d="m 513.169,335.977 c 0,0 -1.879,-12.207 9.389,-12.207 2.996,1.996 5.563,3.378 8.45,3.371 h -0.117 c 2.884,0.007 5.455,-1.375 8.451,-3.371"
       style="fill:none;stroke:#000000;stroke-width:2.18446;stroke-linecap:round;stroke-linejoin:round;stroke-miterlimit:10;stroke-dasharray:none;stroke-opacity:1"
       transform="scale(1.3330573,1.3333333)" />
    <path
       id="path45"
       d="m 527.723,336 2.426,-3.152 -2.266,3.152 -5.325,-12.191 -3.716,7.925 z"
       style="fill:none;stroke:#000000;stroke-width:2.18446;stroke-linecap:round;stroke-linejoin:round;stroke-miterlimit:10;stroke-dasharray:none;stroke-opacity:1"
       transform="scale(1.3330573,1.3333333)" />
    <path
       id="path46"
       d="m 539.342,323.77 -5.325,12.23 -2.27,-3.152"
       style="fill:none;stroke:#000000;stroke-width:2.18446;stroke-linecap:round;stroke-linejoin:round;stroke-miterlimit:10;stroke-dasharray:none;stroke-opacity:1"
       transform="scale(1.3330573,1.3333333)" />
    <path
       id="path47"
       d="m 542.491,338.863 v -17.496 h 11.104 v 1.981 h 2.61 v 15.515 z"
       style="fill:none;stroke:#000000;stroke-width:2.18446;stroke-linecap:round;stroke-linejoin:round;stroke-miterlimit:10;stroke-dasharray:none;stroke-opacity:1"
       transform="scale(1.3330573,1.3333333)" />
    <path
       id="path48"
       d="m 545.5,318.113 h 13.921 v 17.5"
       style="fill:none;stroke:#000000;stroke-width:2.18446;stroke-linecap:round;stroke-linejoin:round;stroke-miterlimit:10;stroke-dasharray:none;stroke-opacity:1"
       transform="scale(1.3330573,1.3333333)" />
    <path
       id="path49"
       d="m 553.595,321.367 2.61,1.981"
       style="fill:none;stroke:#000000;stroke-width:2.18446;stroke-linecap:round;stroke-linejoin:round;stroke-miterlimit:10;stroke-dasharray:none;stroke-opacity:1"
       transform="scale(1.3330573,1.3333333)" />
    <path
       id="path50"
       d="m 545.258,327.195 h 7.915"
       style="fill:none;stroke:#000000;stroke-width:2.18446;stroke-linecap:round;stroke-linejoin:round;stroke-miterlimit:10;stroke-dasharray:none;stroke-opacity:1"
       transform="scale(1.3330573,1.3333333)" />
    <path
       id="path51"
       d="m 545.258,331.043 h 7.915"
       style="fill:none;stroke:#000000;stroke-width:2.18446;stroke-linecap:round;stroke-linejoin:round;stroke-miterlimit:10;stroke-dasharray:none;stroke-opacity:1"
       transform="scale(1.3330573,1.3333333)" />
    <path
       id="path52"
       d="m 545.258,334.406 h 7.915"
       style="fill:none;stroke:#000000;stroke-width:2.18446;stroke-linecap:round;stroke-linejoin:round;stroke-miterlimit:10;stroke-dasharray:none;stroke-opacity:1"
       transform="scale(1.3330573,1.3333333)" />
    <text
       id="text52"
       xml:space="preserve"
       transform="matrix(1.3333333,0,0,1.3333333,261.14612,150.86706)"><tspan
         id="tspan52"
         style="font-style:italic;font-variant:normal;font-weight:700;font-size:18px;font-family:'DIN Next W1G';writing-mode:lr-tb;fill:#000000;fill-opacity:1;fill-rule:nonzero;stroke:none"
         x="0"
         dx="0 -0.396 -0.37799999 -0.396 -0.396 25.74 -0.396 -0.37799999 -0.396 -0.396 -0.37799999 -0.396 -0.396 -0.37799999 -0.396 -0.396 -0.37799999 -0.396 -0.396 -0.37799999 -0.396 -0.396 -0.37799999 -0.396 -0.396 -0.37799999 -0.396 -0.396 -0.37799999 -0.396 -0.396 -0.37799999 -0.396 -0.396 -0.37799999 -0.396 -0.396 -0.77399999 -0.396 -0.37799999 -0.396 -0.396"
         y="0">step : quality estimation (AI ) pre-ﬁlling</tspan><tspan
         id="tspan53"
         style="font-style:italic;font-variant:normal;font-weight:700;font-size:18px;font-family:'DIN Next W1G';writing-mode:lr-tb;fill:#000000;fill-opacity:1;fill-rule:nonzero;stroke:none"
         x="109.64293"
         dx="0 -0.972 -0.972 -0.972 -0.99000001 27.360001 -0.972 -0.99000001 -0.972 -0.972 -0.972 -0.972 -0.972 -0.99000001 -0.972 -0.972 -0.972 -1.044 -0.972 -0.99000001 -0.972 -0.972 -0.972 -0.972 -0.972"
         y="208.93236">step : human post-editing</tspan></text>
    <path
       id="path53"
       d="m 254.914,108.215 c 0,6.109 -4.957,11.062 -11.066,11.062 -6.114,0 -11.067,-4.953 -11.067,-11.062 0,-6.113 4.953,-11.067 11.067,-11.067 6.109,0 11.066,4.954 11.066,11.067 z"
       style="fill:#949cd3;fill-opacity:1;fill-rule:nonzero;stroke:#000464;stroke-width:1.70546;stroke-linecap:round;stroke-linejoin:miter;stroke-miterlimit:1;stroke-dasharray:none;stroke-opacity:1"
       transform="scale(1.3333333)" />
    <text
       id="text53"
       xml:space="preserve"
       transform="matrix(1.3333333,0,0,1.3333333,317.89668,153.30382)"><tspan
         id="tspan54"
         style="font-style:italic;font-variant:normal;font-weight:700;font-size:18.9596px;font-family:'Noto Sans';writing-mode:lr-tb;fill:#000464;fill-opacity:1;fill-rule:nonzero;stroke:none"
         x="0"
         y="0">1</tspan></text>
    <path
       id="path54"
       d="m 363.492,316.184 c 0,6.109 -4.957,11.062 -11.066,11.062 -6.114,0 -11.067,-4.953 -11.067,-11.062 0,-6.114 4.953,-11.067 11.067,-11.067 6.109,0 11.066,4.953 11.066,11.067 z"
       style="fill:#949cd3;fill-opacity:1;fill-rule:nonzero;stroke:#000464;stroke-width:1.70546;stroke-linecap:round;stroke-linejoin:miter;stroke-miterlimit:1;stroke-dasharray:none;stroke-opacity:1"
       transform="scale(1.3333333)" />
    <text
       id="text54"
       xml:space="preserve"
       transform="matrix(1.3333333,0,0,1.3333333,462.66835,430.59496)"><tspan
         id="tspan55"
         style="font-style:italic;font-variant:normal;font-weight:700;font-size:18.9596px;font-family:'Noto Sans';writing-mode:lr-tb;fill:#000464;fill-opacity:1;fill-rule:nonzero;stroke:none"
         x="0"
         y="0">2</tspan></text>
  </g>
</svg>
