<?xml version="1.0" encoding="UTF-8" standalone="no"?>
<!-- Created with Inkscape (http://www.inkscape.org/) -->

<svg
   width="128.15573mm"
   height="52.571915mm"
   viewBox="0 0 128.15573 52.571913"
   version="1.1"
   id="svg1"
   xml:space="preserve"
   inkscape:version="1.4 (1:1.4+202410161351+e7c3feb100)"
   sodipodi:docname="esaai_pipeline.svg"
   inkscape:export-filename="esaai_pipeline.pdf"
   inkscape:export-xdpi="96"
   inkscape:export-ydpi="96"
   xmlns:inkscape="http://www.inkscape.org/namespaces/inkscape"
   xmlns:sodipodi="http://sodipodi.sourceforge.net/DTD/sodipodi-0.dtd"
   xmlns="http://www.w3.org/2000/svg"
   xmlns:svg="http://www.w3.org/2000/svg"><sodipodi:namedview
     id="namedview1"
     pagecolor="#ffffff"
     bordercolor="#000000"
     borderopacity="0.25"
     inkscape:showpageshadow="2"
     inkscape:pageopacity="0.0"
     inkscape:pagecheckerboard="0"
     inkscape:deskcolor="#d1d1d1"
     inkscape:document-units="mm"
     inkscape:zoom="1.4142136"
     inkscape:cx="179.25157"
     inkscape:cy="170.41273"
     inkscape:window-width="2560"
     inkscape:window-height="1011"
     inkscape:window-x="0"
     inkscape:window-y="32"
     inkscape:window-maximized="1"
     inkscape:current-layer="layer1" /><defs
     id="defs1"><inkscape:path-effect
       effect="simplify"
       id="path-effect99"
       is_visible="true"
       lpeversion="1.3"
       threshold="5000"
       steps="1"
       smooth_angles="360"
       helper_size="0"
       simplify_individual_paths="false"
       simplify_just_coalesce="false" /><inkscape:path-effect
       effect="simplify"
       id="path-effect97"
       is_visible="true"
       lpeversion="1.3"
       threshold="100"
       steps="1"
       smooth_angles="360"
       helper_size="0"
       simplify_individual_paths="false"
       simplify_just_coalesce="false" /><rect
       x="750.28986"
       y="135.85419"
       width="48.097221"
       height="37.617908"
       id="rect97" /><inkscape:path-effect
       effect="simplify"
       id="path-effect90"
       is_visible="true"
       lpeversion="1.3"
       threshold="100"
       steps="1"
       smooth_angles="360"
       helper_size="0"
       simplify_individual_paths="false"
       simplify_just_coalesce="false" /><inkscape:path-effect
       effect="simplify"
       id="path-effect89"
       is_visible="true"
       lpeversion="1.3"
       threshold="100"
       steps="1"
       smooth_angles="360"
       helper_size="0"
       simplify_individual_paths="false"
       simplify_just_coalesce="false" /><inkscape:path-effect
       effect="simplify"
       id="path-effect88"
       is_visible="true"
       lpeversion="1.3"
       threshold="100"
       steps="1"
       smooth_angles="360"
       helper_size="0"
       simplify_individual_paths="false"
       simplify_just_coalesce="false" /><inkscape:path-effect
       effect="simplify"
       id="path-effect87"
       is_visible="true"
       lpeversion="1.3"
       threshold="100"
       steps="1"
       smooth_angles="360"
       helper_size="0"
       simplify_individual_paths="false"
       simplify_just_coalesce="false" /><inkscape:path-effect
       effect="simplify"
       id="path-effect86"
       is_visible="true"
       lpeversion="1.3"
       threshold="100"
       steps="1"
       smooth_angles="360"
       helper_size="0"
       simplify_individual_paths="false"
       simplify_just_coalesce="false" /><marker
       style="overflow:visible"
       id="marker85"
       refX="0"
       refY="0"
       orient="auto-start-reverse"
       inkscape:stockid="Stylized triangle arrow"
       markerWidth="1"
       markerHeight="1"
       viewBox="0 0 1 1"
       inkscape:isstock="true"
       inkscape:collect="always"
       preserveAspectRatio="xMidYMid"><path
         transform="scale(0.5)"
         style="fill:context-stroke;fill-rule:evenodd;stroke:context-stroke;stroke-width:1pt"
         d="m 6,0 c -3,1 -7,3 -9,5 0,0 0,-4 2,-5 -2,-1 -2,-5 -2,-5 2,2 6,4 9,5 z"
         id="path85" /></marker><inkscape:path-effect
       effect="simplify"
       id="path-effect85"
       is_visible="true"
       lpeversion="1.3"
       threshold="100"
       steps="1"
       smooth_angles="360"
       helper_size="0"
       simplify_individual_paths="false"
       simplify_just_coalesce="false" /><inkscape:path-effect
       effect="simplify"
       id="path-effect84"
       is_visible="true"
       lpeversion="1.3"
       threshold="0.5"
       steps="1"
       smooth_angles="360"
       helper_size="0"
       simplify_individual_paths="false"
       simplify_just_coalesce="false" /><inkscape:path-effect
       effect="simplify"
       id="path-effect82"
       is_visible="true"
       lpeversion="1.3"
       threshold="0.5"
       steps="1"
       smooth_angles="360"
       helper_size="0"
       simplify_individual_paths="false"
       simplify_just_coalesce="false" /><inkscape:path-effect
       effect="simplify"
       id="path-effect80"
       is_visible="true"
       lpeversion="1.3"
       threshold="0.5"
       steps="1"
       smooth_angles="360"
       helper_size="0"
       simplify_individual_paths="false"
       simplify_just_coalesce="false" /><inkscape:path-effect
       effect="simplify"
       id="path-effect78"
       is_visible="true"
       lpeversion="1.3"
       threshold="0.5"
       steps="1"
       smooth_angles="360"
       helper_size="0"
       simplify_individual_paths="false"
       simplify_just_coalesce="false" /><inkscape:path-effect
       effect="simplify"
       id="path-effect70"
       is_visible="true"
       lpeversion="1.3"
       threshold="0.5"
       steps="1"
       smooth_angles="360"
       helper_size="0"
       simplify_individual_paths="false"
       simplify_just_coalesce="false" /><inkscape:path-effect
       effect="simplify"
       id="path-effect68"
       is_visible="true"
       lpeversion="1.3"
       threshold="0.5"
       steps="1"
       smooth_angles="360"
       helper_size="0"
       simplify_individual_paths="false"
       simplify_just_coalesce="false" /><inkscape:path-effect
       effect="simplify"
       id="path-effect66"
       is_visible="true"
       lpeversion="1.3"
       threshold="0.5"
       steps="1"
       smooth_angles="360"
       helper_size="0"
       simplify_individual_paths="false"
       simplify_just_coalesce="false" /><inkscape:path-effect
       effect="simplify"
       id="path-effect64"
       is_visible="true"
       lpeversion="1.3"
       threshold="0.5"
       steps="1"
       smooth_angles="360"
       helper_size="0"
       simplify_individual_paths="false"
       simplify_just_coalesce="false" /><marker
       style="overflow:visible"
       id="marker42"
       refX="0"
       refY="0"
       orient="auto-start-reverse"
       inkscape:stockid="Stylized triangle arrow"
       markerWidth="1"
       markerHeight="1"
       viewBox="0 0 1 1"
       inkscape:isstock="true"
       inkscape:collect="always"
       preserveAspectRatio="xMidYMid"><path
         transform="scale(0.5)"
         style="fill:context-stroke;fill-rule:evenodd;stroke:context-stroke;stroke-width:1pt"
         d="m 6,0 c -3,1 -7,3 -9,5 0,0 0,-4 2,-5 -2,-1 -2,-5 -2,-5 2,2 6,4 9,5 z"
         id="path42" /></marker><inkscape:path-effect
       effect="simplify"
       id="path-effect41"
       is_visible="true"
       lpeversion="1.3"
       threshold="100"
       steps="1"
       smooth_angles="360"
       helper_size="0"
       simplify_individual_paths="false"
       simplify_just_coalesce="false" /><inkscape:path-effect
       effect="simplify"
       id="path-effect39"
       is_visible="true"
       lpeversion="1.3"
       threshold="100"
       steps="1"
       smooth_angles="360"
       helper_size="0"
       simplify_individual_paths="false"
       simplify_just_coalesce="false" /><marker
       style="overflow:visible"
       id="ArrowTriangleStylized"
       refX="0"
       refY="0"
       orient="auto-start-reverse"
       inkscape:stockid="Stylized triangle arrow"
       markerWidth="1"
       markerHeight="1"
       viewBox="0 0 1 1"
       inkscape:isstock="true"
       inkscape:collect="always"
       preserveAspectRatio="xMidYMid"><path
         transform="scale(0.5)"
         style="fill:context-stroke;fill-rule:evenodd;stroke:context-stroke;stroke-width:1pt"
         d="m 6,0 c -3,1 -7,3 -9,5 0,0 0,-4 2,-5 -2,-1 -2,-5 -2,-5 2,2 6,4 9,5 z"
         id="path38" /></marker><inkscape:path-effect
       effect="simplify"
       id="path-effect36"
       is_visible="true"
       lpeversion="1.3"
       threshold="100"
       steps="1"
       smooth_angles="360"
       helper_size="0"
       simplify_individual_paths="false"
       simplify_just_coalesce="false" /><inkscape:path-effect
       effect="simplify"
       id="path-effect35"
       is_visible="true"
       lpeversion="1.3"
       threshold="0.5"
       steps="1"
       smooth_angles="360"
       helper_size="0"
       simplify_individual_paths="false"
       simplify_just_coalesce="false" /><inkscape:path-effect
       effect="simplify"
       id="path-effect33"
       is_visible="true"
       lpeversion="1.3"
       threshold="0.5"
       steps="1"
       smooth_angles="360"
       helper_size="0"
       simplify_individual_paths="false"
       simplify_just_coalesce="false" /><inkscape:path-effect
       effect="simplify"
       id="path-effect31"
       is_visible="true"
       lpeversion="1.3"
       threshold="0.5"
       steps="1"
       smooth_angles="360"
       helper_size="0"
       simplify_individual_paths="false"
       simplify_just_coalesce="false" /><inkscape:path-effect
       effect="simplify"
       id="path-effect29"
       is_visible="true"
       lpeversion="1.3"
       threshold="0.5"
       steps="1"
       smooth_angles="360"
       helper_size="0"
       simplify_individual_paths="false"
       simplify_just_coalesce="false" /><inkscape:path-effect
       effect="simplify"
       id="path-effect10"
       is_visible="true"
       lpeversion="1.3"
       threshold="0.5"
       steps="1"
       smooth_angles="360"
       helper_size="0"
       simplify_individual_paths="false"
       simplify_just_coalesce="false" /><inkscape:path-effect
       effect="simplify"
       id="path-effect9"
       is_visible="true"
       lpeversion="1.3"
       threshold="0.5"
       steps="1"
       smooth_angles="360"
       helper_size="0"
       simplify_individual_paths="false"
       simplify_just_coalesce="false" /><inkscape:path-effect
       effect="simplify"
       id="path-effect8"
       is_visible="true"
       lpeversion="1.3"
       threshold="0.5"
       steps="1"
       smooth_angles="360"
       helper_size="0"
       simplify_individual_paths="false"
       simplify_just_coalesce="false" /><inkscape:path-effect
       effect="simplify"
       id="path-effect7"
       is_visible="true"
       lpeversion="1.3"
       threshold="0.5"
       steps="1"
       smooth_angles="360"
       helper_size="0"
       simplify_individual_paths="false"
       simplify_just_coalesce="false" /><inkscape:path-effect
       effect="simplify"
       id="path-effect6"
       is_visible="true"
       lpeversion="1.3"
       threshold="0.5"
       steps="1"
       smooth_angles="360"
       helper_size="0"
       simplify_individual_paths="false"
       simplify_just_coalesce="false" /><inkscape:path-effect
       effect="simplify"
       id="path-effect5"
       is_visible="true"
       lpeversion="1.3"
       threshold="100"
       steps="1"
       smooth_angles="360"
       helper_size="0"
       simplify_individual_paths="false"
       simplify_just_coalesce="false" /><rect
       x="12.326164"
       y="91.424652"
       width="116.58212"
       height="50.416836"
       id="rect2" /><inkscape:path-effect
       effect="simplify"
       id="path-effect1"
       is_visible="true"
       lpeversion="1.3"
       threshold="100"
       steps="1"
       smooth_angles="360"
       helper_size="0"
       simplify_individual_paths="false"
       simplify_just_coalesce="false" /><rect
       x="12.326164"
       y="91.424652"
       width="116.58212"
       height="50.416836"
       id="rect4" /><rect
       x="12.326164"
       y="91.424652"
       width="116.58212"
       height="50.416836"
       id="rect19" /><rect
       x="12.326164"
       y="91.424652"
       width="217.02467"
       height="39.205971"
       id="rect23" /><rect
       x="12.326164"
       y="91.424652"
       width="290.79037"
       height="60.808887"
       id="rect28" /><rect
       x="12.326164"
       y="91.424652"
       width="290.79037"
       height="60.808887"
       id="rect63" /><rect
       x="12.326164"
       y="91.424652"
       width="294.34283"
       height="89.802437"
       id="rect77" /><rect
       x="12.326164"
       y="91.424652"
       width="217.02467"
       height="39.205971"
       id="rect84" /></defs><g
     inkscape:label="Layer 1"
     inkscape:groupmode="layer"
     id="layer1"
     transform="translate(-5.2776051,-6.932569)"><rect
       style="fill:#ffffff;stroke-width:0.499999;stroke-linecap:round"
       id="rect1"
       width="128.15573"
       height="52.571915"
       x="5.2776051"
       y="6.932569" /><g
       id="hair"
       transform="matrix(0.26458333,0,0,0.26458333,75.791853,50.81527)" /><g
       id="skin"
       transform="matrix(0.26458333,0,0,0.26458333,75.791853,50.81527)" /><g
       id="skin-shadow"
       transform="matrix(0.26458333,0,0,0.26458333,75.791853,50.81527)" /><path
       style="fill:#dbdbdb;fill-opacity:1;stroke:#000000;stroke-width:0.377;stroke-linecap:round;stroke-linejoin:round;stroke-miterlimit:0;stroke-dasharray:0.0377, 0.754;stroke-dashoffset:0;stroke-opacity:1"
       d="m 10.280653,32.156963 v 13.254528 h 10.473311 v -10.69583 l -2.5628,-2.562799 z"
       id="path1" /><path
       style="fill:none;fill-opacity:1;stroke:#000000;stroke-width:0.377;stroke-linecap:round;stroke-linejoin:round;stroke-miterlimit:0;stroke-dasharray:0.0377, 0.754;stroke-dashoffset:0;stroke-opacity:1"
       d="m 18.000294,32.270038 v 2.236253 h 2.49188"
       id="path2" /><text
       xml:space="preserve"
       transform="matrix(0.26458333,0,0,0.26458333,3.7178589,19.125118)"
       id="text2"
       style="font-style:normal;font-variant:normal;font-weight:normal;font-stretch:normal;font-size:21.3333px;line-height:1.62;font-family:'DIN Next W1G';-inkscape-font-specification:'DIN Next W1G';text-decoration-color:#000000;letter-spacing:-0.5px;word-spacing:0px;white-space:pre;shape-inside:url(#rect2);display:inline;fill:#000000;fill-opacity:1;stroke:none;stroke-width:1.80283;stroke-linecap:round;stroke-miterlimit:0;stroke-dasharray:none;stroke-opacity:1"><tspan
         x="12.326172"
         y="114.03713"
         id="tspan30"><tspan
           style="font-weight:bold"
           id="tspan2">source</tspan></tspan></text><text
       xml:space="preserve"
       transform="matrix(0.26458333,0,0,0.26458333,25.942854,19.654285)"
       id="text4"
       style="font-style:normal;font-variant:normal;font-weight:normal;font-stretch:normal;font-size:21.3333px;line-height:1.62;font-family:'DIN Next W1G';-inkscape-font-specification:'DIN Next W1G';text-decoration-color:#000000;letter-spacing:-0.5px;word-spacing:0px;white-space:pre;shape-inside:url(#rect4);display:inline;fill:#000000;fill-opacity:1;stroke:none;stroke-width:1.80283;stroke-linecap:round;stroke-miterlimit:0;stroke-dasharray:none;stroke-opacity:1"><tspan
         x="12.326172"
         y="114.03713"
         id="tspan32"><tspan
           style="font-weight:bold"
           id="tspan31">translation</tspan></tspan></text><g
       id="g40"
       transform="translate(-15.345837)"><path
         style="fill:#dbdbdb;fill-opacity:1;stroke:#000000;stroke-width:0.477;stroke-linecap:round;stroke-linejoin:round;stroke-miterlimit:0;stroke-dasharray:none;stroke-opacity:1"
         d="M 52.613989,32.156963 V 45.411491 H 63.0873 v -10.69583 l -2.5628,-2.562799 z"
         id="path3" /><path
         style="fill:#dbdbdb;fill-opacity:1;stroke:#000000;stroke-width:0.476779;stroke-linecap:round;stroke-linejoin:round;stroke-miterlimit:0;stroke-opacity:1"
         d="m 60.33363,32.270038 v 2.236253 h 2.49188"
         id="path4" /><path
         style="fill:none;fill-opacity:1;stroke:#000000;stroke-width:0.376999;stroke-linecap:round;stroke-linejoin:round;stroke-miterlimit:0;stroke-dasharray:none;stroke-dashoffset:0;stroke-opacity:1"
         d="m 48.799429,11.993338 c 0.03151,-0.04645 0.0636,-0.09248 0.09642,-0.138042 0.0207,-0.02873 0.047,-0.05288 0.07547,-0.07374 0.05544,-0.04061 0.119182,-0.06856 0.184641,-0.08856 0.08585,-0.02624 0.175026,-0.04013 0.26432,-0.04773 0.124969,-0.01064 0.250641,-0.0096 0.375821,-0.0036 0.165695,0.0079 0.33068,0.02577 0.495675,0.04234 0.07249,0.0073 0.144924,0.01624 0.217751,0.0187 0.0389,0.0013 0.07783,0.0015 0.11675,0.0023 0.15918,0.0032 0.31838,0.0071 0.477386,0.01533 0.07231,0.0037 0.144649,0.0078 0.216676,0.01539 0.04624,0.0049 0.09202,0.01314 0.13784,0.02084 0.326094,0.0548 0.649137,0.127544 0.97687,0.172426 0.175066,0.02398 0.351914,0.02953 0.528316,0.03516 0.10868,0.0035 0.217394,0.007 0.325881,0.01462 0.03912,0.0027 0.07805,-0.0066 0.114347,-0.02053 0.05124,-0.01964 0.09892,-0.04727 0.145529,-0.07595 0.08084,-0.04975 0.158879,-0.1046 0.244304,-0.146438 0.05018,-0.02458 0.103351,-0.04428 0.158982,-0.05204 0.03852,-0.0054 0.0776,-0.0013 0.115475,0.0068 0.07632,0.01643 0.148307,0.04737 0.220896,0.07525 0.04718,0.01812 0.09518,0.03441 0.14453,0.04565 0.113019,0.02572 0.230048,0.02969 0.345315,0.02085 0.135928,-0.01043 0.269891,-0.03783 0.401926,-0.07097 0.146584,-0.03678 0.291045,-0.08133 0.436866,-0.120923 0.06609,-0.01794 0.133736,-0.02909 0.200451,-0.04431 0.05411,-0.01235 0.108029,-0.02692 0.158956,-0.04939 0.04071,-0.01796 0.07684,-0.04477 0.109201,-0.0751 0.03229,-0.03026 0.06236,-0.06297 0.09708,-0.09056"
         id="path6"
         inkscape:path-effect="#path-effect7"
         inkscape:original-d="m 48.799429,11.993338 c 0.03083,-0.04546 0.0946,-0.1415 0.123664,-0.170558 0.315896,-0.315899 1.225806,-0.136484 1.595186,-0.119653 0.0056,2.54e-4 0.656825,0.0085 0.849021,0.03867 0.352952,0.05546 0.700098,0.134782 1.054376,0.185349 0.285059,0.04069 0.579617,0.03116 0.867566,0.05165 0.212465,0.01512 0.482997,-0.332192 0.742497,-0.294655 0.129564,0.01874 0.247087,0.08756 0.373753,0.120628 0.394166,0.10291 0.849043,-0.0678 1.220645,-0.166581 0.114721,-0.03049 0.271148,-0.04678 0.3762,-0.104079 0.0752,-0.04102 0.115533,-0.10077 0.180758,-0.152948"
         transform="translate(5.2916667,26.458334)" /><path
         style="fill:none;fill-opacity:1;stroke:#000000;stroke-width:0.376999;stroke-linecap:round;stroke-linejoin:round;stroke-miterlimit:0;stroke-dasharray:none;stroke-dashoffset:0;stroke-opacity:1"
         d="m 48.971845,14.051667 c 0.03431,0.05211 0.07641,0.09993 0.12814,0.135387 0.04402,0.03017 0.0949,0.04922 0.147164,0.05949 0.04011,0.0079 0.0811,0.0076 0.121798,0.0092 0.04938,0.002 0.09866,0.0099 0.148193,0.006 0.04329,-0.0034 0.08358,-0.02117 0.122244,-0.03969 0.05909,-0.0283 0.116239,-0.06039 0.173788,-0.09163 0.07313,-0.0397 0.146292,-0.07979 0.223094,-0.112008 0.04289,-0.01799 0.08689,-0.03437 0.132822,-0.04256 0.03528,-0.0063 0.0727,-0.0063 0.106373,0.0081 0.04109,0.01757 0.07836,0.04276 0.114003,0.06943 0.05742,0.04295 0.11079,0.09096 0.167369,0.134972 0.03568,0.02776 0.07443,0.05115 0.112486,0.07543 0.142332,0.09078 0.287729,0.177397 0.440035,0.250489 0.09544,0.0458 0.19346,0.08697 0.295209,0.116561 0.07565,0.022 0.153536,0.03815 0.23248,0.04052 0.05507,0.0017 0.110663,-0.0042 0.163462,-0.02053 0.12165,-0.03766 0.237728,-0.09093 0.351509,-0.147644 0.145605,-0.07257 0.288279,-0.151484 0.43843,-0.214549 0.104108,-0.04373 0.212142,-0.07945 0.323681,-0.09834 0.03595,-0.0061 0.07223,-0.0099 0.108575,-0.01283 0.03561,-0.0028 0.06883,0.01584 0.09419,0.03938 0.02787,0.02587 0.05014,0.05702 0.07094,0.08866 0.04026,0.06123 0.07458,0.126447 0.119269,0.18469 0.02299,0.02996 0.04912,0.05814 0.08089,0.07908 0.03337,0.02199 0.07591,0.03045 0.114534,0.01978 0.04228,-0.01168 0.0832,-0.02805 0.122752,-0.04693 0.09515,-0.04543 0.181799,-0.106705 0.263159,-0.173347 0.110889,-0.09083 0.213054,-0.191511 0.318508,-0.288431 0.02253,-0.0207 0.04589,-0.04047 0.06601,-0.06377 0.02348,-0.0272 0.04426,-0.05879 0.07632,-0.0766 0.01296,-0.0072 0.03383,-0.01957 0.04299,-0.0078 0.01576,0.02032 0.02927,0.04239 0.04357,0.06378 0.06609,0.09885 0.134133,0.196646 0.209911,0.288366 0.03955,0.04787 0.08055,0.0949 0.127104,0.136111 0.02894,0.02562 0.06,0.04974 0.09572,0.06521 0.0336,0.01455 0.07087,0.02006 0.107306,0.01666 0.04605,-0.0043 0.08993,-0.02131 0.130494,-0.04283 0.06013,-0.03191 0.114592,-0.07309 0.169301,-0.113297 0.04297,-0.03158 0.08557,-0.06419 0.132605,-0.08954 0.01986,-0.01071 0.04004,-0.02182 0.06205,-0.02711 0.0198,-0.0048 0.0388,0.0068 0.05256,0.02006 0.02988,0.02879 0.04799,0.06868 0.08151,0.09356 0.04758,0.03531 0.104613,0.05607 0.162606,0.0664 0.07456,0.01329 0.150758,0.01126 0.226027,0.0066 0.07328,-0.0045 0.146398,-0.01271 0.219883,-0.01292"
         id="path7"
         inkscape:path-effect="#path-effect8"
         inkscape:original-d="m 48.971845,14.051667 c 0.09494,0.143935 0.210958,0.203712 0.37782,0.203712 0.06837,0 0.138961,0.0173 0.205107,0 0.159142,-0.04161 0.548937,-0.336218 0.710052,-0.275636 0.113104,0.04253 0.238051,0.176373 0.334148,0.238753 0.278389,0.180716 0.848645,0.540214 1.196636,0.433873 0.418142,-0.12778 0.779079,-0.445291 1.227092,-0.474872 0.18614,-0.01229 0.254781,0.48134 0.49076,0.408585 0.288928,-0.08908 0.512813,-0.348348 0.72903,-0.537305 0.04763,-0.04162 0.08746,-0.127442 0.149765,-0.11654 0.0066,0.0011 0.277281,0.446474 0.455737,0.543493 0.219546,0.11936 0.434136,-0.182733 0.616921,-0.244636 0.05834,-0.01976 0.09377,0.08018 0.144158,0.11562 0.169551,0.119257 0.413846,0.0566 0.603835,0.0566"
         transform="translate(5.2916667,26.458334)" /><path
         style="fill:none;fill-opacity:1;stroke:#000000;stroke-width:0.376999;stroke-linecap:round;stroke-linejoin:round;stroke-miterlimit:0;stroke-dasharray:none;stroke-dashoffset:0;stroke-opacity:1"
         d="m 49.172807,16.740448 c 0.155835,0.01032 0.312235,5.68e-4 0.467238,-0.0165 0.22913,-0.02523 0.456301,-0.06972 0.686712,-0.0815 0.02483,-0.0013 0.04956,-0.0035 0.07428,-0.0064 0.164557,-0.01875 0.32974,-0.03277 0.495284,-0.03856 0.115495,-0.004 0.231269,-0.0048 0.346607,0.0032 0.07306,0.0051 0.146265,0.01249 0.217667,0.02911 0.04842,0.01127 0.09788,0.02381 0.14049,0.04996 0.03664,0.02248 0.06314,0.05763 0.08558,0.09356 0.02851,0.04565 0.05106,0.09487 0.08181,0.139132 0.0221,0.03181 0.05011,0.06314 0.08813,0.07454 0.04926,0.01477 0.09993,0.02458 0.150916,0.03105 0.114853,0.01459 0.230957,0.01187 0.346376,0.0076 0.127133,-0.0048 0.254695,-0.01177 0.381719,-9.03e-4 0.06368,0.0054 0.12698,0.01592 0.188754,0.03248 0.164466,0.04408 0.322857,0.108745 0.488935,0.147142 0.05761,0.01332 0.116092,0.02306 0.175068,0.02776 0.133694,0.01067 0.267992,-3.26e-4 0.401743,0.0095 0.06906,0.0051 0.137966,0.01526 0.207383,0.01315 0.04868,-0.0015 0.09739,-0.0098 0.142931,-0.02724 0.0583,-0.02229 0.11391,-0.05122 0.167018,-0.0839 0.09917,-0.06103 0.189784,-0.134701 0.277672,-0.210774 0.07556,-0.0654 0.149589,-0.132539 0.225808,-0.197184 0.222342,-0.188584 0.44067,-0.381998 0.652244,-0.582589 0.04219,-0.04 0.08165,-0.08284 0.118206,-0.128036 0.02788,-0.03447 0.05804,-0.06735 0.08276,-0.104151 0.0051,-0.0076 0.0087,-0.01677 0.01632,-0.02231 0,0 0.0084,-0.0012 0.0084,-0.0012 0.02634,0.01009 0.04833,0.02869 0.06941,0.04689 0.04374,0.03776 0.08415,0.07922 0.122931,0.121998 0.05897,0.06506 0.115038,0.132921 0.165359,0.204907 0.02942,0.04209 0.05836,0.08496 0.07996,0.131635 0.01193,0.02578 0.02374,0.05288 0.02453,0.0817"
         id="path8"
         inkscape:path-effect="#path-effect9"
         inkscape:original-d="m 49.172807,16.740448 c 0.40201,0.02649 0.793316,-0.07905 1.191236,-0.100217 0.02281,-0.0012 0.921411,-0.121163 1.225621,0.03313 0.124966,0.06338 0.14669,0.279407 0.27278,0.315432 0.3404,0.09726 0.708009,-0.02455 1.052672,0.06591 0.197588,0.05186 0.389241,0.136235 0.592812,0.168024 0.157236,0.02455 0.306525,0.0077 0.463285,0.01754 0.135496,0.0085 0.248015,0.03643 0.381693,-0.0176 0.24369,-0.0985 0.447757,-0.309063 0.642078,-0.473518 0.227055,-0.192157 0.443537,-0.38512 0.659966,-0.588322 0.08914,-0.08369 0.132839,-0.144028 0.20615,-0.235666 0.0082,-0.01024 0.01535,-0.03184 0.02781,-0.02781 0.09373,0.03033 0.462192,0.452134 0.462192,0.587125"
         transform="translate(5.2916667,26.458334)" /><path
         style="fill:none;fill-opacity:1;stroke:#000000;stroke-width:0.376999;stroke-linecap:round;stroke-linejoin:round;stroke-miterlimit:0;stroke-dasharray:none;stroke-dashoffset:0;stroke-opacity:1"
         d="m 48.891898,9.8314448 c 0.02656,-0.059369 0.06243,-0.1150723 0.108731,-0.1609935 0.03705,-0.03675 0.08131,-0.066828 0.130628,-0.084468 0.0418,-0.01495 0.08701,-0.019981 0.131131,-0.015097 0.05124,0.00567 0.09998,0.025069 0.14473,0.050231 0.03576,0.020104 0.06534,0.049972 0.08805,0.083938 0.03002,0.044905 0.04844,0.09624 0.06393,0.1476928 0.0086,0.028696 0.01204,0.05922 0.02452,0.086495 0.0025,0.00536 0.0044,0.012151 0.01012,0.015025 0,0 0.0058,-9.868e-4 0.0058,-9.868e-4 0.03119,-0.021385 0.05962,-0.046453 0.08788,-0.071496 0.06009,-0.053244 0.118513,-0.1085827 0.182412,-0.1573092 0.02941,-0.022431 0.05965,-0.044278 0.09303,-0.060401 0.02584,-0.012477 0.05477,-0.023884 0.08386,-0.018555 0.03216,0.00589 0.05925,0.025666 0.08442,0.045363 0.02948,0.02307 0.05738,0.04844 0.08959,0.067784 0.02117,0.012712 0.04507,0.020826 0.06995,0.022577 0.06837,0.00481 0.137432,0.00568 0.205416,-0.00429 0.04448,-0.00652 0.08803,-0.018515 0.130209,-0.033989 0.04939,-0.01812 0.09745,-0.039572 0.146139,-0.059446 0.04114,-0.016794 0.08262,-0.032845 0.124793,-0.046867 0.03456,-0.011489 0.07187,-0.00975 0.107378,-0.00452 0.05054,0.00745 0.09963,0.022041 0.148775,0.035596 0.03701,0.010209 0.07396,0.0218 0.112174,0.026281 0.0329,0.00386 0.06613,0.00456 0.09922,0.00352 0.06432,-0.00202 0.128137,-0.012857 0.190241,-0.029451 0.08124,-0.021706 0.159711,-0.052266 0.23797,-0.082717 0.04272,-0.016621 0.08589,-0.032062 0.128424,-0.049143 0.03393,-0.013624 0.06608,-0.031213 0.09817,-0.048621 0.07575,-0.041092 0.150501,-0.083968 0.225232,-0.126866 0.101977,-0.058538 0.203403,-0.1180467 0.306022,-0.1754561 0.03875,-0.02168 0.07712,-0.044178 0.117128,-0.06347 0.0118,-0.00569 0.02346,-0.011956 0.03609,-0.015634 0,0 0.004,-2.203e-4 0.004,-2.203e-4 0.04032,0.017029 0.07253,0.048666 0.09766,0.083859 0.03112,0.043577 0.05381,0.092283 0.07896,0.1393529 0.02114,0.039557 0.04332,0.079484 0.07489,0.1117335 0.02234,0.022825 0.04819,0.041894 0.07429,0.060136 0.08416,0.058816 0.178531,0.1020702 0.276383,0.1325394 0.107286,0.033406 0.218907,0.052163 0.331014,0.058497 0.02793,0.00158 0.0559,0.00237 0.08387,0.00237"
         id="path9"
         inkscape:path-effect="#path-effect10"
         inkscape:original-d="m 48.891898,9.8314448 c 0.09288,-0.2080133 0.291614,-0.3441592 0.520581,-0.2071669 0.158388,0.094765 0.154155,0.3510941 0.187045,0.3290028 0.103915,-0.0698 0.31305,-0.3071162 0.4314,-0.3089934 0.08479,-0.00135 0.15928,0.1293548 0.252786,0.136443 0.298842,0.022654 0.348229,-0.053707 0.613516,-0.144081 0.1035,-0.035259 0.278471,0.050908 0.38355,0.058991 0.230958,0.017767 0.400701,-0.070807 0.640631,-0.1594263 0.108005,-0.039894 0.762823,-0.4405048 0.786691,-0.4302665 0.137845,0.059132 0.160668,0.2612803 0.271277,0.3534553 0.204549,0.170457 0.493792,0.2350349 0.745797,0.2350349"
         transform="translate(5.2916667,26.458334)" /></g><text
       xml:space="preserve"
       transform="matrix(0.26458333,0,0,0.26458333,5.0019962,-17.446702)"
       id="text19"
       style="font-style:normal;font-variant:normal;font-weight:normal;font-stretch:normal;font-size:20px;line-height:1.62;font-family:'DIN Next W1G';-inkscape-font-specification:'DIN Next W1G';text-decoration-color:#000000;letter-spacing:-0.5px;word-spacing:0px;white-space:pre;shape-inside:url(#rect19);display:inline;fill:#000000;fill-opacity:1;stroke:none;stroke-width:1.80283;stroke-linecap:round;stroke-miterlimit:0;stroke-dasharray:none;stroke-opacity:1"><tspan
         x="12.326172"
         y="112.62383"
         id="tspan34"><tspan
           style="font-weight:bold"
           id="tspan33">MT system</tspan></tspan></text><path
       fill="#8967aa"
       d="m 23.64062,14.949002 -5.820833,3.33485 v 7.276042 l 5.820833,3.334861 z"
       id="path1-9"
       style="stroke-width:0.264583" /><path
       fill="#f4aa41"
       d="m 24.698954,14.949002 5.820833,3.33485 v 7.276042 l -5.820833,3.334861 z"
       id="path2-1"
       style="stroke-width:0.264583" /><path
       fill="#000000"
       d="m 17.819787,18.283852 -0.131524,-0.229579 c -0.08229,0.04715 -0.133059,0.134726 -0.133059,0.229579 z m 5.820833,-3.334853 h 0.264584 c 0,-0.09437 -0.05027,-0.181594 -0.131922,-0.228915 -0.08162,-0.04732 -0.182298,-0.04757 -0.264186,-6.59e-4 z m -5.820833,10.610895 h -0.264583 c 0,0.09485 0.05077,0.18243 0.133059,0.229579 z m 5.820833,3.334861 -0.131524,0.229579 c 0.08189,0.04691 0.182562,0.04665 0.264186,-6.61e-4 0.08165,-0.04733 0.131922,-0.134567 0.131922,-0.228918 z m 6.879167,-3.334861 0.131524,0.229579 c 0.08229,-0.04715 0.133059,-0.134726 0.133059,-0.229579 z m -5.820833,3.334861 H 24.43437 c 0,0.09435 0.05027,0.181584 0.131921,0.228918 0.08162,0.04731 0.182298,0.04757 0.264187,6.61e-4 z m 5.820833,-10.610903 h 0.264583 c 0,-0.09485 -0.05077,-0.18243 -0.133059,-0.229579 z m -5.820833,-3.334853 0.131524,-0.229574 c -0.08189,-0.04691 -0.182563,-0.04666 -0.264187,6.59e-4 -0.08165,0.04732 -0.131921,0.134546 -0.131921,0.228915 z m -6.747643,3.564432 5.820834,-3.334861 -0.263049,-0.459145 -5.820833,3.334848 z m 0.133059,7.046463 v -7.276042 h -0.529166 v 7.276042 z m 5.687775,3.105282 -5.820834,-3.334861 -0.263048,0.459158 5.820833,3.334861 z m 0.133059,0.229579 V 14.948999 h -0.529167 v 13.945756 z m 6.483058,-3.56444 -5.820833,3.334861 0.263049,0.459158 5.820833,-3.334861 z m -0.133059,-7.046463 v 7.276042 h 0.529167 v -7.276042 z m -5.687774,-3.105282 5.820833,3.334861 0.263049,-0.459158 -5.820833,-3.334848 z M 24.43437,14.948999 v 13.945756 h 0.529167 V 14.948999 Z"
       id="path4-7"
       style="stroke-width:0.264583" /><circle
       cx="27.080202"
       cy="19.9375"
       r="0.52916664"
       fill="none"
       stroke="#000000"
       stroke-width="0.529167"
       id="circle6" /><circle
       cx="27.080202"
       cy="23.641666"
       r="0.52916664"
       fill="none"
       stroke="#000000"
       stroke-width="0.529167"
       id="circle7" /><circle
       cx="27.080202"
       cy="17.820833"
       r="0.52916664"
       fill="none"
       stroke="#000000"
       stroke-width="0.529167"
       id="circle8" /><circle
       cx="29.196871"
       cy="23.377083"
       r="0.52916664"
       fill="none"
       stroke="#000000"
       stroke-width="0.529167"
       id="circle9" /><circle
       cx="29.196871"
       cy="21.260416"
       r="0.52916664"
       fill="none"
       stroke="#000000"
       stroke-width="0.529167"
       id="circle10" /><circle
       cx="29.196871"
       cy="19.143749"
       r="0.52916664"
       fill="none"
       stroke="#000000"
       stroke-width="0.529167"
       id="circle11" /><path
       fill="none"
       stroke="#000000"
       stroke-linecap="round"
       stroke-linejoin="round"
       stroke-width="0.529167"
       d="m 24.698954,20.466665 h 0.529166 l 1.058334,1.058333 h 1.058333 l 1.322916,1.322917"
       id="path11" /><path
       fill="none"
       stroke="#000000"
       stroke-width="0.529167"
       d="m 28.006245,22.45104 0.661458,-0.661458"
       id="path12" /><path
       fill="none"
       stroke="#000000"
       stroke-width="0.529167"
       d="M 29.19687,20.731248 V 19.672915"
       id="path13" /><path
       fill="none"
       stroke="#000000"
       stroke-linecap="round"
       stroke-linejoin="round"
       stroke-width="0.529167"
       d="m 24.698954,16.762498 h 1.058333 l 0.79375,0.79375"
       id="path14" /><circle
       r="0.52916664"
       transform="scale(1,-1)"
       fill="none"
       stroke="#000000"
       stroke-width="0.529167"
       id="circle14"
       cx="27.080206"
       cy="-25.758331" /><path
       fill="none"
       stroke="#000000"
       stroke-linecap="round"
       stroke-linejoin="round"
       stroke-width="0.529167"
       d="m 24.698954,26.816665 h 1.058333 l 0.79375,-0.79375"
       id="path15" /><path
       fill="none"
       stroke="#000000"
       stroke-width="0.529167"
       d="m 27.080204,18.349998 v 1.058334"
       id="path16" /><path
       fill="none"
       stroke="#000000"
       stroke-width="0.529167"
       d="m 27.080204,24.170832 v 1.058333"
       id="path17" /><text
       xml:space="preserve"
       style="font-style:normal;font-variant:normal;font-weight:normal;font-stretch:normal;font-size:4.93889px;line-height:1.02;font-family:'DIN Next W1G';-inkscape-font-specification:'DIN Next W1G';text-decoration-color:#000000;letter-spacing:-0.343958px;word-spacing:0px;fill:none;fill-opacity:1;stroke:#000000;stroke-width:0.376999;stroke-linecap:round;stroke-linejoin:round;stroke-miterlimit:0;stroke-dasharray:none;stroke-dashoffset:0;stroke-opacity:1"
       x="20.988333"
       y="20.787361"
       id="text20"><tspan
         sodipodi:role="line"
         style="font-weight:bold;font-size:4.93889px;line-height:1.02;text-align:center;text-anchor:middle;fill:#b399c8;fill-opacity:1;stroke:none;stroke-width:0.377"
         x="20.988333"
         y="20.787361"
         id="tspan21">A</tspan><tspan
         sodipodi:role="line"
         style="font-weight:bold;font-size:4.93889px;line-height:1.02;text-align:center;text-anchor:middle;fill:#b399c8;fill-opacity:1;stroke:none;stroke-width:0.377"
         x="20.816355"
         y="26.467085"
         id="tspan22">ㅎ</tspan></text><g
       id="g22"
       transform="matrix(0.26458333,0,0,0.26458333,52.782724,11.798765)"><g
         id="color"><circle
           cx="36.051998"
           cy="34.906399"
           r="5.6135998"
           fill="#ffffff"
           id="circle1" /><path
           fill="#d0cfce"
           d="m 51.2579,29.8111 c 0,0 -1.8149,-0.4504 -1.0786,-2.0742 l 4.5037,-7.4841 -3.6502,-3.417 -0.73,-0.6833 -7.1357,4.6903 c -0.9431,0.4213 -2.037,-0.1166 -2.2794,-1.1205 l -1.887,-7.8158 h -6 l -1.8809,7.7858 c -0.2389,0.9894 -1.3101,1.5798 -2.2425,1.1716 -0.0148,-0.0063 -0.0296,-0.0131 -0.0445,-0.0198 l -7.1357,-4.6904 -0.73,0.6833 -3.6502,3.417 4.5037,7.4841 c 0.7364,1.6238 -1.0785,2.0743 -1.0785,2.0743 l -8.4766,2.1074 0.1649,4.9972 0.033,0.9995 8.3622,1.7291 c 0.952,0.3641 1.3501,1.4954 0.8358,2.3755 l -0.0328,0.0562 -4.5037,7.484 3.6502,3.417 0.73,0.6833 7.1357,-4.6902 c 0.0149,-0.0068 0.03,-0.0129 0.0445,-0.02 0,0 0.0115,-0.0042 0.0332,-0.0111 1.1606,-0.3768 2.393,0.3463 2.6794,1.5325 l 1.7947,7.4336 h 6 l 1.887,-7.8158 c 0.2424,-1.0039 1.3364,-1.5417 2.2794,-1.1205 l 7.1357,4.6903 0.73,-0.6833 3.6502,-3.417 -4.5037,-7.4841 -0.0328,-0.0562 c -0.5143,-0.88 -0.1162,-2.0112 0.8358,-2.3755 l 8.3622,-1.729 0.033,-0.9995 0.1649,-4.9973 z M 36,44.9064 c -5.5228,0 -10,-4.4772 -10,-10 0,-5.5228 4.4772,-10 10,-10 5.5228,0 10,4.4772 10,10 0,5.5228 -4.4772,10 -10,10 z"
           id="path1-93" /><path
           fill="#9b9b9a"
           d="m 36,24.9064 c -5.5228,0 -10,4.4772 -10,10 0,5.5228 4.4772,10 10,10 5.5228,0 10,-4.4772 10,-10 0,-5.5228 -4.4772,-10 -10,-10 z m 0,15 c -2.7614,0 -5,-2.2386 -5,-5 0,-2.7614 2.2386,-5 5,-5 2.7614,0 5,2.2385 5,5 0,2.7615 -2.2386,5 -5,5 z"
           id="path2-6" /></g><g
         id="line"><circle
           cx="36"
           cy="34.906399"
           r="5"
           fill="none"
           stroke="#000000"
           stroke-linecap="round"
           stroke-linejoin="round"
           stroke-width="2"
           id="circle2" /><circle
           cx="36"
           cy="34.906399"
           r="10"
           fill="none"
           stroke="#000000"
           stroke-linecap="round"
           stroke-linejoin="round"
           stroke-width="2"
           id="circle3" /><path
           fill="none"
           stroke="#000000"
           stroke-linecap="round"
           stroke-linejoin="round"
           stroke-width="2"
           d="m 31.1191,19.6921 c -0.2389,0.9895 -1.31,1.5799 -2.2425,1.1717 -0.0147,-0.0065 -0.0296,-0.0131 -0.0445,-0.0199 l -7.1357,-4.6903 -0.73,0.6834 -3.6502,3.417 4.5037,7.484 c 0.7363,1.6239 -1.0785,2.0744 -1.0785,2.0744 l -8.4766,2.1074 0.1649,4.9973 0.033,0.9995 8.3622,1.7291 v 0 c 0.9521,0.3641 1.3501,1.4954 0.8359,2.3754 l -0.0328,0.0562 -4.5037,7.484 3.6502,3.417 0.73,0.6834 7.1357,-4.6903 c 0.0149,-0.0068 0.03,-0.0129 0.0445,-0.0199 0,0 0.0116,-0.0042 0.0332,-0.0112 1.1606,-0.3768 2.393,0.3463 2.6794,1.5324 l 1.7947,7.4336 h 6 l 1.8869,-7.8157 c 0.2424,-1.004 1.3364,-1.5418 2.2794,-1.1205 v 0 l 7.1357,4.6903 0.73,-0.6834 3.6502,-3.417 -4.5037,-7.484 -0.0328,-0.0562 c -0.5143,-0.8801 -0.1162,-2.0113 0.8359,-2.3755 v 0 l 8.3622,-1.7291 0.033,-0.9995 0.1649,-4.9973 -8.4766,-2.1074 c 0,0 -1.8149,-0.4505 -1.0785,-2.0744 l 4.5037,-7.484 -3.6502,-3.417 -0.73,-0.6834 -7.1357,4.6903 v 0 c -0.943,0.4212 -2.037,-0.1166 -2.2794,-1.1206 L 39,11.9064 h -6 z"
           id="path3-0" /></g></g><g
       id="g23"
       transform="matrix(0.26458333,0,0,0.26458333,90.71694,11.97713)"><g
         id="color-6"><path
           fill="#9b9b9a"
           d="m 16.8466,58.8567 c 0,0 -1.5465,-13.8402 10.4535,-13.8402 3.1919,2.1279 5.9264,3.5984 9,3.5922 h -0.125 c 3.0736,0.0062 5.1081,-2.5643 8.3,-4.6922 15.5705,-10e-5 11.1,14.9402 11.1,14.9402"
           id="path1-2" /><polyline
           fill="#d0cfce"
           points="36.615,54.1697 39.0302,57.439 45.3621,44.1395 52.1943,53.6302 40.3644,58.3477"
           id="polyline1" /><path
           fill="#ffffff"
           d="m 38.5091,57.73 c -0.5976,1.035 -4.8914,1.035 -5.4889,0 l -1.8421,-2.4345 -3.3864,-8.7387 7.9729,2.7 7.573,-2.7 -3.2865,8.7387 z"
           id="path2-61" /><path
           fill="#3f3f3f"
           d="m 33.4574,48.4979 c 0,0 -1.2064,6.0214 2.3072,6.0214 3.5136,0 2.3073,-6.0214 2.3073,-6.0214"
           id="path3-8" /><path
           fill="#3f3f3f"
           d="m 35.0184,54.8429 c 0.3249,-0.5627 1.137,-0.5627 1.4619,0 l 2.5499,4.0246 h -6.6183 z"
           id="path4-79" /><polyline
           fill="#d0cfce"
           points="34.9142,54.5193 32.4991,57.8736 26.8271,44.8891 22.8698,53.3328 32.3275,57.8736"
           id="polyline4" /><path
           fill="#d0cfce"
           d="M 66.1161,58.4491 H 50.6315 V 38.6467 h 15.2708 c 0.1181,0 0.2138,0.0957 0.2138,0.2138 z"
           id="path5" /><path
           fill="#ffffff"
           d="M 62.6646,60.925 H 48.057 V 41.9732 H 58.81 c 2.1288,0 3.8546,1.7257 3.8546,3.8546 z"
           id="path6-2" /></g><g
         id="hair-0"><path
           fill="#a57939"
           d="m 17.2016,44.7296 c 0.3924,0.644 0.8751,1.2364 1.4433,1.7322 0.4796,0.4185 0.9583,0.8137 1.4365,1.198 1.5671,-1.5598 3.8624,-2.6433 7.2188,-2.6433 3.1714,2.1143 5.892,3.5762 8.9417,3.5889 3.0358,-0.0315 5.0649,-2.5767 8.2333,-4.6888 1.2472,0 2.365,0.0963 3.3664,0.2733 l 0.2155,-1.6545 2.6372,0.0162 v -3.7255 l 5.0351,0.0022 C 55.5253,35.8746 54.3242,32.2565 51.9709,27.6698 51.8404,21.1119 51.0161,11.9845 43.4495,12.2458 41.5959,7.9371 18.6061,2.5796 19.5206,28.0093 c -0.0775,4.3858 -5.13,10.3007 -2.319,16.7203 z"
           id="path7-2" /></g><g
         id="skin-3"><path
           fill="#fadcbc"
           d="m 40.9975,15.8576 c -2.0473,3.6729 -11.675,8.6145 -16.3735,10.7562 l 0.0874,0.0102 c -0.078,0.6711 -0.1184,1.3574 -0.1184,2.0556 0,7.8276 5.0765,14.1732 11.3386,14.1732 6.2622,0 11.3386,-6.3456 11.3386,-14.1732 0,-1.1582 -0.1111,-2.2839 -0.3208,-3.3614 -0.7817,-4.0177 -2.9333,-7.3653 -5.8015,-9.2263"
           id="path8-7" /></g><g
         id="skin-shadow-5" /><g
         id="line-9"><path
           fill="none"
           stroke="#000000"
           stroke-linecap="round"
           stroke-linejoin="round"
           stroke-miterlimit="10"
           stroke-width="2"
           d="m 18.1626,44.3604 -0.5604,-0.9195 c -2.6609,-6.0766 2.4972,-11.6756 2.5705,-15.8271 -0.8655,-24.0713 20.8962,-19 22.6507,-14.9215 7.1623,-0.2473 7.9426,8.3925 8.0662,14.6002 1.5104,2.9436 2.5194,5.4658 3.0728,7.6563"
           id="path9-2" /><path
           fill="none"
           stroke="#000000"
           stroke-linecap="round"
           stroke-linejoin="round"
           stroke-miterlimit="10"
           stroke-width="2"
           d="m 40.9975,15.8576 c -2.0473,3.6729 -11.675,8.6145 -16.3735,10.7562 l 0.0874,0.0102 c -0.078,0.6711 -0.1184,1.3574 -0.1184,2.0556 0,7.8276 5.0765,14.1732 11.3386,14.1732 6.2622,0 11.3386,-6.3456 11.3386,-14.1732 0,-1.1582 -0.1111,-2.2839 -0.3208,-3.3614 -0.7817,-4.0177 -2.9333,-7.3653 -5.8015,-9.2263"
           id="path10" /><path
           d="m 41.9318,26.9963 c 0,1.1045 -0.8965,2 -2,2 -1.1035,0 -2,-0.8955 -2,-2 0,-1.1035 0.8965,-2 2,-2 1.1035,0 2,0.8965 2,2"
           id="path11-2" /><path
           d="m 33.9318,26.9963 c 0,1.1045 -0.8965,2 -2,2 -1.1035,0 -2,-0.8955 -2,-2 0,-1.1035 0.8965,-2 2,-2 1.1035,0 2,0.8965 2,2"
           id="path12-8" /><path
           d="m 35.9316,36.9987 c -1.1518,0 -2.3037,-0.2861 -3.4472,-0.8579 -0.4942,-0.247 -0.6944,-0.8476 -0.4473,-1.3418 0.2466,-0.4936 0.8462,-0.6943 1.3418,-0.4472 1.7178,0.8593 3.3877,0.8593 5.1055,0 0.4946,-0.2471 1.0947,-0.0464 1.3418,0.4472 0.247,0.4942 0.0468,1.0948 -0.4473,1.3418 -1.1436,0.5718 -2.2954,0.8579 -3.4473,0.8579 z"
           id="path13-9" /><path
           fill="none"
           stroke="#000000"
           stroke-linecap="round"
           stroke-linejoin="round"
           stroke-miterlimit="10"
           stroke-width="2"
           d="m 33.4574,48.4979 c 0,0 -1.2064,6.0214 2.3072,6.0214 3.5136,0 2.3073,-6.0214 2.3073,-6.0214"
           id="path14-7" /><line
           x1="44.702099"
           x2="38.962299"
           y1="55.592201"
           y2="57.879902"
           fill="none"
           stroke="#000000"
           stroke-linecap="round"
           stroke-linejoin="round"
           stroke-miterlimit="10"
           stroke-width="2"
           id="line14" /><path
           fill="none"
           stroke="#000000"
           stroke-linecap="round"
           stroke-linejoin="round"
           stroke-miterlimit="10"
           stroke-width="2"
           d="m 16.8271,57.8491 c 0,0 -2,-13 10,-13 3.1919,2.1279 5.9264,3.5984 9,3.5921 h -0.125 c 3.0736,0.0063 5.8082,-1.4642 9,-3.5921"
           id="path15-3" /><polygon
           fill="none"
           stroke="#000000"
           stroke-linecap="round"
           stroke-linejoin="round"
           stroke-miterlimit="10"
           stroke-width="2"
           points="34.9142,54.5193 32.4991,57.8736 26.8271,44.8891 22.8698,53.3328 32.3275,57.8736 "
           id="polygon15" /><polyline
           fill="none"
           stroke="#000000"
           stroke-linecap="round"
           stroke-linejoin="round"
           stroke-miterlimit="10"
           stroke-width="2"
           points="44.7021,44.8491 39.0302,57.8736 36.615,54.5193"
           id="polyline15" /><polygon
           fill="none"
           stroke="#000000"
           stroke-linecap="round"
           stroke-linejoin="round"
           stroke-miterlimit="10"
           stroke-width="2"
           points="62.6646,44.4015 62.6646,60.925 48.057,60.925 48.057,42.2891 59.8822,42.2891 59.8822,44.4015 "
           id="polygon16" /><polyline
           fill="none"
           stroke="#000000"
           stroke-linecap="round"
           stroke-linejoin="round"
           stroke-miterlimit="10"
           stroke-width="2"
           points="51.2611,38.8261 66.0865,38.8261 66.0865,57.462"
           id="polyline16" /><line
           x1="59.882198"
           x2="62.6646"
           y1="42.289101"
           y2="44.401501"
           fill="none"
           stroke="#000000"
           stroke-linecap="round"
           stroke-linejoin="round"
           stroke-miterlimit="10"
           stroke-width="2"
           id="line16" /><line
           x1="51.001499"
           x2="59.4342"
           y1="48.497898"
           y2="48.497898"
           fill="none"
           stroke="#000000"
           stroke-linecap="round"
           stroke-linejoin="round"
           stroke-miterlimit="10"
           stroke-width="2"
           id="line17" /><line
           x1="51.001499"
           x2="59.4342"
           y1="52.5942"
           y2="52.5942"
           fill="none"
           stroke="#000000"
           stroke-linecap="round"
           stroke-linejoin="round"
           stroke-miterlimit="10"
           stroke-width="2"
           id="line18" /><line
           x1="51.001499"
           x2="59.4342"
           y1="56.178501"
           y2="56.178501"
           fill="none"
           stroke="#000000"
           stroke-linecap="round"
           stroke-linejoin="round"
           stroke-miterlimit="10"
           stroke-width="2"
           id="line19" /></g></g><text
       xml:space="preserve"
       transform="matrix(0.26458333,0,0,0.26458333,33.598838,-17.453276)"
       id="text23"
       style="font-style:normal;font-variant:normal;font-weight:normal;font-stretch:normal;font-size:20px;line-height:1.62;font-family:'DIN Next W1G';-inkscape-font-specification:'DIN Next W1G';text-decoration-color:#000000;letter-spacing:-0.5px;word-spacing:0px;white-space:pre;shape-inside:url(#rect23);display:inline;fill:#000000;fill-opacity:1;stroke:none;stroke-width:1.80283;stroke-linecap:round;stroke-miterlimit:0;stroke-dasharray:none;stroke-opacity:1"><tspan
         x="12.326172"
         y="112.62383"
         id="tspan36"><tspan
           style="font-weight:bold"
           id="tspan35">quality estimation (AI)</tspan></tspan></text><text
       xml:space="preserve"
       transform="matrix(0.26458333,0,0,0.26458333,35.483206,22.088246)"
       id="text24"
       style="font-style:normal;font-variant:normal;font-weight:normal;font-stretch:normal;font-size:24px;line-height:0.62;font-family:'DIN Next W1G';-inkscape-font-specification:'DIN Next W1G';text-align:center;text-decoration-color:#000000;letter-spacing:-0.5px;word-spacing:0px;white-space:pre;shape-inside:url(#rect28);display:inline;fill:#000000;fill-opacity:1;stroke:none;stroke-width:1.80283;stroke-linecap:round;stroke-miterlimit:0;stroke-dasharray:none;stroke-opacity:1"
       x="214.40015"
       y="0"><tspan
         x="108.6911"
         y="104.86383"
         id="tspan39"><tspan
           style="font-weight:bold;font-size:21.3333px"
           id="tspan37">translation</tspan><tspan
           style="font-weight:bold"
           id="tspan38">
</tspan></tspan><tspan
         x="81.717636"
         y="119.74383"
         id="tspan41"><tspan
           dx="0 0 0 0 0 0 0.5 -0.5"
           style="font-weight:bold;font-size:16px"
           id="tspan40">+pre-filled error spans </tspan></tspan></text><g
       id="g41"
       transform="translate(-44.450009)"><path
         style="fill:#dbdbdb;fill-opacity:1;stroke:#000000;stroke-width:0.477;stroke-linecap:round;stroke-linejoin:round;stroke-miterlimit:0;stroke-dasharray:none;stroke-opacity:1"
         d="m 116.114,32.156963 v 13.254528 h 10.47332 v -10.69583 l -2.5628,-2.562799 z"
         id="path23" /><path
         style="fill:#dbdbdb;fill-opacity:1;stroke:#000000;stroke-width:0.476779;stroke-linecap:round;stroke-linejoin:round;stroke-miterlimit:0;stroke-opacity:1"
         d="m 123.83365,32.270038 v 2.236253 h 2.49188"
         id="path24" /><path
         style="fill:none;fill-opacity:1;stroke:#000000;stroke-width:0.376999;stroke-linecap:round;stroke-linejoin:round;stroke-miterlimit:0;stroke-dasharray:none;stroke-dashoffset:0;stroke-opacity:1"
         d="m 48.799429,11.993338 c 0.03151,-0.04645 0.0636,-0.09248 0.09642,-0.138042 0.0207,-0.02873 0.047,-0.05288 0.07547,-0.07374 0.05544,-0.04061 0.119182,-0.06856 0.184641,-0.08856 0.08585,-0.02624 0.175026,-0.04013 0.26432,-0.04773 0.124969,-0.01064 0.250641,-0.0096 0.375821,-0.0036 0.165695,0.0079 0.33068,0.02577 0.495675,0.04234 0.07249,0.0073 0.144924,0.01624 0.217751,0.0187 0.0389,0.0013 0.07783,0.0015 0.11675,0.0023 0.15918,0.0032 0.31838,0.0071 0.477386,0.01533 0.07231,0.0037 0.144649,0.0078 0.216676,0.01539 0.04624,0.0049 0.09202,0.01314 0.13784,0.02084 0.326094,0.0548 0.649137,0.127544 0.97687,0.172426 0.175066,0.02398 0.351914,0.02953 0.528316,0.03516 0.10868,0.0035 0.217394,0.007 0.325881,0.01462 0.03912,0.0027 0.07805,-0.0066 0.114347,-0.02053 0.05124,-0.01964 0.09892,-0.04727 0.145529,-0.07595 0.08084,-0.04975 0.158879,-0.1046 0.244304,-0.146438 0.05018,-0.02458 0.103351,-0.04428 0.158982,-0.05204 0.03852,-0.0054 0.0776,-0.0013 0.115475,0.0068 0.07632,0.01643 0.148307,0.04737 0.220896,0.07525 0.04718,0.01812 0.09518,0.03441 0.14453,0.04565 0.113019,0.02572 0.230048,0.02969 0.345315,0.02085 0.135928,-0.01043 0.269891,-0.03783 0.401926,-0.07097 0.146584,-0.03678 0.291045,-0.08133 0.436866,-0.120923 0.06609,-0.01794 0.133736,-0.02909 0.200451,-0.04431 0.05411,-0.01235 0.108029,-0.02692 0.158956,-0.04939 0.04071,-0.01796 0.07684,-0.04477 0.109201,-0.0751 0.03229,-0.03026 0.06236,-0.06297 0.09708,-0.09056"
         id="path25"
         inkscape:path-effect="#path-effect29"
         inkscape:original-d="m 48.799429,11.993338 c 0.03083,-0.04546 0.0946,-0.1415 0.123664,-0.170558 0.315896,-0.315899 1.225806,-0.136484 1.595186,-0.119653 0.0056,2.54e-4 0.656825,0.0085 0.849021,0.03867 0.352952,0.05546 0.700098,0.134782 1.054376,0.185349 0.285059,0.04069 0.579617,0.03116 0.867566,0.05165 0.212465,0.01512 0.482997,-0.332192 0.742497,-0.294655 0.129564,0.01874 0.247087,0.08756 0.373753,0.120628 0.394166,0.10291 0.849043,-0.0678 1.220645,-0.166581 0.114721,-0.03049 0.271148,-0.04678 0.3762,-0.104079 0.0752,-0.04102 0.115533,-0.10077 0.180758,-0.152948"
         transform="translate(68.79167,26.458334)" /><path
         style="fill:none;fill-opacity:1;stroke:#000000;stroke-width:0.376999;stroke-linecap:round;stroke-linejoin:round;stroke-miterlimit:0;stroke-dasharray:none;stroke-dashoffset:0;stroke-opacity:1"
         d="m 48.971845,14.051667 c 0.03431,0.05211 0.07641,0.09993 0.12814,0.135387 0.04402,0.03017 0.0949,0.04922 0.147164,0.05949 0.04011,0.0079 0.0811,0.0076 0.121798,0.0092 0.04938,0.002 0.09866,0.0099 0.148193,0.006 0.04329,-0.0034 0.08358,-0.02117 0.122244,-0.03969 0.05909,-0.0283 0.116239,-0.06039 0.173788,-0.09163 0.07313,-0.0397 0.146292,-0.07979 0.223094,-0.112008 0.04289,-0.01799 0.08689,-0.03437 0.132822,-0.04256 0.03528,-0.0063 0.0727,-0.0063 0.106373,0.0081 0.04109,0.01757 0.07836,0.04276 0.114003,0.06943 0.05742,0.04295 0.11079,0.09096 0.167369,0.134972 0.03568,0.02776 0.07443,0.05115 0.112486,0.07543 0.142332,0.09078 0.287729,0.177397 0.440035,0.250489 0.09544,0.0458 0.19346,0.08697 0.295209,0.116561 0.07565,0.022 0.153536,0.03815 0.23248,0.04052 0.05507,0.0017 0.110663,-0.0042 0.163462,-0.02053 0.12165,-0.03766 0.237728,-0.09093 0.351509,-0.147644 0.145605,-0.07257 0.288279,-0.151484 0.43843,-0.214549 0.104108,-0.04373 0.212142,-0.07945 0.323681,-0.09834 0.03595,-0.0061 0.07223,-0.0099 0.108575,-0.01283 0.03561,-0.0028 0.06883,0.01584 0.09419,0.03938 0.02787,0.02587 0.05014,0.05702 0.07094,0.08866 0.04026,0.06123 0.07458,0.126447 0.119269,0.18469 0.02299,0.02996 0.04912,0.05814 0.08089,0.07908 0.03337,0.02199 0.07591,0.03045 0.114534,0.01978 0.04228,-0.01168 0.0832,-0.02805 0.122752,-0.04693 0.09515,-0.04543 0.181799,-0.106705 0.263159,-0.173347 0.110889,-0.09083 0.213054,-0.191511 0.318508,-0.288431 0.02253,-0.0207 0.04589,-0.04047 0.06601,-0.06377 0.02348,-0.0272 0.04426,-0.05879 0.07632,-0.0766 0.01296,-0.0072 0.03383,-0.01957 0.04299,-0.0078 0.01576,0.02032 0.02927,0.04239 0.04357,0.06378 0.06609,0.09885 0.134133,0.196646 0.209911,0.288366 0.03955,0.04787 0.08055,0.0949 0.127104,0.136111 0.02894,0.02562 0.06,0.04974 0.09572,0.06521 0.0336,0.01455 0.07087,0.02006 0.107306,0.01666 0.04605,-0.0043 0.08993,-0.02131 0.130494,-0.04283 0.06013,-0.03191 0.114592,-0.07309 0.169301,-0.113297 0.04297,-0.03158 0.08557,-0.06419 0.132605,-0.08954 0.01986,-0.01071 0.04004,-0.02182 0.06205,-0.02711 0.0198,-0.0048 0.0388,0.0068 0.05256,0.02006 0.02988,0.02879 0.04799,0.06868 0.08151,0.09356 0.04758,0.03531 0.104613,0.05607 0.162606,0.0664 0.07456,0.01329 0.150758,0.01126 0.226027,0.0066 0.07328,-0.0045 0.146398,-0.01271 0.219883,-0.01292"
         id="path26"
         inkscape:path-effect="#path-effect31"
         inkscape:original-d="m 48.971845,14.051667 c 0.09494,0.143935 0.210958,0.203712 0.37782,0.203712 0.06837,0 0.138961,0.0173 0.205107,0 0.159142,-0.04161 0.548937,-0.336218 0.710052,-0.275636 0.113104,0.04253 0.238051,0.176373 0.334148,0.238753 0.278389,0.180716 0.848645,0.540214 1.196636,0.433873 0.418142,-0.12778 0.779079,-0.445291 1.227092,-0.474872 0.18614,-0.01229 0.254781,0.48134 0.49076,0.408585 0.288928,-0.08908 0.512813,-0.348348 0.72903,-0.537305 0.04763,-0.04162 0.08746,-0.127442 0.149765,-0.11654 0.0066,0.0011 0.277281,0.446474 0.455737,0.543493 0.219546,0.11936 0.434136,-0.182733 0.616921,-0.244636 0.05834,-0.01976 0.09377,0.08018 0.144158,0.11562 0.169551,0.119257 0.413846,0.0566 0.603835,0.0566"
         transform="translate(68.79167,26.458334)" /><path
         style="fill:none;fill-opacity:1;stroke:#000000;stroke-width:0.376999;stroke-linecap:round;stroke-linejoin:round;stroke-miterlimit:0;stroke-dasharray:none;stroke-dashoffset:0;stroke-opacity:1"
         d="m 49.172807,16.740448 c 0.155835,0.01032 0.312235,5.68e-4 0.467238,-0.0165 0.22913,-0.02523 0.456301,-0.06972 0.686712,-0.0815 0.02483,-0.0013 0.04956,-0.0035 0.07428,-0.0064 0.164557,-0.01875 0.32974,-0.03277 0.495284,-0.03856 0.115495,-0.004 0.231269,-0.0048 0.346607,0.0032 0.07306,0.0051 0.146265,0.01249 0.217667,0.02911 0.04842,0.01127 0.09788,0.02381 0.14049,0.04996 0.03664,0.02248 0.06314,0.05763 0.08558,0.09356 0.02851,0.04565 0.05106,0.09487 0.08181,0.139132 0.0221,0.03181 0.05011,0.06314 0.08813,0.07454 0.04926,0.01477 0.09993,0.02458 0.150916,0.03105 0.114853,0.01459 0.230957,0.01187 0.346376,0.0076 0.127133,-0.0048 0.254695,-0.01177 0.381719,-9.03e-4 0.06368,0.0054 0.12698,0.01592 0.188754,0.03248 0.164466,0.04408 0.322857,0.108745 0.488935,0.147142 0.05761,0.01332 0.116092,0.02306 0.175068,0.02776 0.133694,0.01067 0.267992,-3.26e-4 0.401743,0.0095 0.06906,0.0051 0.137966,0.01526 0.207383,0.01315 0.04868,-0.0015 0.09739,-0.0098 0.142931,-0.02724 0.0583,-0.02229 0.11391,-0.05122 0.167018,-0.0839 0.09917,-0.06103 0.189784,-0.134701 0.277672,-0.210774 0.07556,-0.0654 0.149589,-0.132539 0.225808,-0.197184 0.222342,-0.188584 0.44067,-0.381998 0.652244,-0.582589 0.04219,-0.04 0.08165,-0.08284 0.118206,-0.128036 0.02788,-0.03447 0.05804,-0.06735 0.08276,-0.104151 0.0051,-0.0076 0.0087,-0.01677 0.01632,-0.02231 0,0 0.0084,-0.0012 0.0084,-0.0012 0.02634,0.01009 0.04833,0.02869 0.06941,0.04689 0.04374,0.03776 0.08415,0.07922 0.122931,0.121998 0.05897,0.06506 0.115038,0.132921 0.165359,0.204907 0.02942,0.04209 0.05836,0.08496 0.07996,0.131635 0.01193,0.02578 0.02374,0.05288 0.02453,0.0817"
         id="path27"
         inkscape:path-effect="#path-effect33"
         inkscape:original-d="m 49.172807,16.740448 c 0.40201,0.02649 0.793316,-0.07905 1.191236,-0.100217 0.02281,-0.0012 0.921411,-0.121163 1.225621,0.03313 0.124966,0.06338 0.14669,0.279407 0.27278,0.315432 0.3404,0.09726 0.708009,-0.02455 1.052672,0.06591 0.197588,0.05186 0.389241,0.136235 0.592812,0.168024 0.157236,0.02455 0.306525,0.0077 0.463285,0.01754 0.135496,0.0085 0.248015,0.03643 0.381693,-0.0176 0.24369,-0.0985 0.447757,-0.309063 0.642078,-0.473518 0.227055,-0.192157 0.443537,-0.38512 0.659966,-0.588322 0.08914,-0.08369 0.132839,-0.144028 0.20615,-0.235666 0.0082,-0.01024 0.01535,-0.03184 0.02781,-0.02781 0.09373,0.03033 0.462192,0.452134 0.462192,0.587125"
         transform="translate(68.79167,26.458334)" /><path
         style="fill:none;fill-opacity:1;stroke:#000000;stroke-width:0.376999;stroke-linecap:round;stroke-linejoin:round;stroke-miterlimit:0;stroke-dasharray:none;stroke-dashoffset:0;stroke-opacity:1"
         d="m 48.891898,9.8314448 c 0.02656,-0.059369 0.06243,-0.1150723 0.108731,-0.1609935 0.03705,-0.03675 0.08131,-0.066828 0.130628,-0.084468 0.0418,-0.01495 0.08701,-0.019981 0.131131,-0.015097 0.05124,0.00567 0.09998,0.025069 0.14473,0.050231 0.03576,0.020104 0.06534,0.049972 0.08805,0.083938 0.03002,0.044905 0.04844,0.09624 0.06393,0.1476928 0.0086,0.028696 0.01204,0.05922 0.02452,0.086495 0.0025,0.00536 0.0044,0.012151 0.01012,0.015025 0,0 0.0058,-9.868e-4 0.0058,-9.868e-4 0.03119,-0.021385 0.05962,-0.046453 0.08788,-0.071496 0.06009,-0.053244 0.118513,-0.1085827 0.182412,-0.1573092 0.02941,-0.022431 0.05965,-0.044278 0.09303,-0.060401 0.02584,-0.012477 0.05477,-0.023884 0.08386,-0.018555 0.03216,0.00589 0.05925,0.025666 0.08442,0.045363 0.02948,0.02307 0.05738,0.04844 0.08959,0.067784 0.02117,0.012712 0.04507,0.020826 0.06995,0.022577 0.06837,0.00481 0.137432,0.00568 0.205416,-0.00429 0.04448,-0.00652 0.08803,-0.018515 0.130209,-0.033989 0.04939,-0.01812 0.09745,-0.039572 0.146139,-0.059446 0.04114,-0.016794 0.08262,-0.032845 0.124793,-0.046867 0.03456,-0.011489 0.07187,-0.00975 0.107378,-0.00452 0.05054,0.00745 0.09963,0.022041 0.148775,0.035596 0.03701,0.010209 0.07396,0.0218 0.112174,0.026281 0.0329,0.00386 0.06613,0.00456 0.09922,0.00352 0.06432,-0.00202 0.128137,-0.012857 0.190241,-0.029451 0.08124,-0.021706 0.159711,-0.052266 0.23797,-0.082717 0.04272,-0.016621 0.08589,-0.032062 0.128424,-0.049143 0.03393,-0.013624 0.06608,-0.031213 0.09817,-0.048621 0.07575,-0.041092 0.150501,-0.083968 0.225232,-0.126866 0.101977,-0.058538 0.203403,-0.1180467 0.306022,-0.1754561 0.03875,-0.02168 0.07712,-0.044178 0.117128,-0.06347 0.0118,-0.00569 0.02346,-0.011956 0.03609,-0.015634 0,0 0.004,-2.203e-4 0.004,-2.203e-4 0.04032,0.017029 0.07253,0.048666 0.09766,0.083859 0.03112,0.043577 0.05381,0.092283 0.07896,0.1393529 0.02114,0.039557 0.04332,0.079484 0.07489,0.1117335 0.02234,0.022825 0.04819,0.041894 0.07429,0.060136 0.08416,0.058816 0.178531,0.1020702 0.276383,0.1325394 0.107286,0.033406 0.218907,0.052163 0.331014,0.058497 0.02793,0.00158 0.0559,0.00237 0.08387,0.00237"
         id="path28"
         inkscape:path-effect="#path-effect35"
         inkscape:original-d="m 48.891898,9.8314448 c 0.09288,-0.2080133 0.291614,-0.3441592 0.520581,-0.2071669 0.158388,0.094765 0.154155,0.3510941 0.187045,0.3290028 0.103915,-0.0698 0.31305,-0.3071162 0.4314,-0.3089934 0.08479,-0.00135 0.15928,0.1293548 0.252786,0.136443 0.298842,0.022654 0.348229,-0.053707 0.613516,-0.144081 0.1035,-0.035259 0.278471,0.050908 0.38355,0.058991 0.230958,0.017767 0.400701,-0.070807 0.640631,-0.1594263 0.108005,-0.039894 0.762823,-0.4405048 0.786691,-0.4302665 0.137845,0.059132 0.160668,0.2612803 0.271277,0.3534553 0.204549,0.170457 0.493792,0.2350349 0.745797,0.2350349"
         transform="translate(68.79167,26.458334)" /></g><path
       style="fill:none;fill-opacity:1;stroke:#000000;stroke-width:0.677;stroke-linecap:round;stroke-linejoin:round;stroke-miterlimit:0;stroke-dasharray:none;stroke-dashoffset:0;stroke-opacity:1;marker-end:url(#ArrowTriangleStylized)"
       d="m 23.2053,39.866252 c 1.360889,-0.03972 2.72057,-0.19637 4.083257,-0.03857 1.452003,0.168145 2.910119,0.08285 4.366167,-0.0331 1.366926,-0.108858 2.740459,-0.06934 4.108732,-0.01"
       id="path36"
       inkscape:path-effect="#path-effect36"
       inkscape:original-d="m 23.2053,39.866252 c 1.016836,-0.04864 2.032818,-0.120796 3.050506,-0.145912 5.379105,0.604498 3.534947,-0.209518 9.50765,0.06428"
       sodipodi:nodetypes="csc"
       transform="translate(-1.5875)" /><path
       style="fill:none;fill-opacity:1;stroke:#000000;stroke-width:0.677;stroke-linecap:round;stroke-linejoin:round;stroke-miterlimit:0;stroke-dasharray:none;stroke-dashoffset:0;stroke-opacity:1;marker-end:url(#marker42)"
       d="m 71.66249,39.368349 c 3.064128,-0.108108 6.127208,-0.420489 9.191975,-0.344864 3.066733,0.07567 6.140698,0.531145 9.205447,0.169686"
       id="path41"
       inkscape:path-effect="#path-effect41"
       inkscape:original-d="M 71.66249,39.368349 79.974641,39.0312 c 2.504867,-0.1016 6.716402,0.579319 10.085271,0.161971"
       sodipodi:nodetypes="csc"
       transform="translate(-21.695839,0.52916663)" /><text
       xml:space="preserve"
       transform="matrix(0.26458333,0,0,0.26458333,87.257781,-17.446702)"
       id="text84"
       style="font-style:normal;font-variant:normal;font-weight:normal;font-stretch:normal;font-size:20px;line-height:1.62;font-family:'DIN Next W1G';-inkscape-font-specification:'DIN Next W1G';text-decoration-color:#000000;letter-spacing:-0.5px;word-spacing:0px;white-space:pre;shape-inside:url(#rect84);display:inline;fill:#000000;fill-opacity:1;stroke:none;stroke-width:1.80283;stroke-linecap:round;stroke-miterlimit:0;stroke-dasharray:none;stroke-opacity:1"><tspan
         x="12.326172"
         y="112.62383"
         id="tspan43"><tspan
           style="font-weight:bold"
           id="tspan42">annotator (human)</tspan></tspan></text><path
       style="fill:none;fill-opacity:1;stroke:#000000;stroke-width:0.677;stroke-linecap:round;stroke-linejoin:round;stroke-miterlimit:0;stroke-dasharray:none;stroke-dashoffset:0;stroke-opacity:1;marker-end:url(#marker85)"
       d="m 119.4796,39.986471 c 2.81272,0.120275 5.5888,-0.374492 8.37556,-0.683462 4.49546,-0.498415 9.01055,0.04497 13.51928,-0.0014 0.65998,-0.0068 1.3199,-0.02061 1.97955,-0.04252"
       id="path84"
       inkscape:path-effect="#path-effect85"
       inkscape:original-d="m 119.4796,39.986471 c 6.79814,0.118105 6.70686,-1.049495 13.49997,-0.86629 2.28604,0.06165 6.05891,0.28228 10.37442,0.138946"
       transform="translate(-36.647167,0.16101473)"
       sodipodi:nodetypes="csc" /><path
       style="fill:none;fill-opacity:1;stroke:#000000;stroke-width:0.577;stroke-linecap:round;stroke-linejoin:round;stroke-miterlimit:0;stroke-dasharray:0.577, 1.154;stroke-dashoffset:0;stroke-opacity:1"
       d="m 26.520914,28.164209 c 0.725535,3.684881 2.625655,6.978741 3.690134,10.558952 0.07211,0.242536 0.141313,0.485937 0.207564,0.730139"
       id="path87"
       inkscape:path-effect="#path-effect87"
       inkscape:original-d="m 26.520914,28.164209 c 0.878003,4.217882 2.660972,6.730576 3.897698,11.289091"
       sodipodi:nodetypes="cc" /><path
       style="fill:none;fill-opacity:1;stroke:#000000;stroke-width:0.577;stroke-linecap:round;stroke-linejoin:round;stroke-miterlimit:0;stroke-dasharray:0.577, 1.154;stroke-dashoffset:0;stroke-opacity:1"
       d="m 80.467309,26.208217 c -0.443807,0.702854 -1.156656,1.309948 -1.298877,2.136922 -0.256081,1.489042 -1.043388,2.803675 -1.388002,4.27438 -0.481357,2.054279 -0.881383,4.138645 -1.019896,6.246587 0,0 -0.0019,0.08189 -0.0019,0.08189 0,0 -6.42e-4,0.07711 -6.42e-4,0.07711"
       id="path88"
       inkscape:path-effect="#path-effect88"
       inkscape:original-d="m 80.467309,26.208217 c -2.16169,3.13635 -0.579389,0.989831 -2.167776,4.716832 -0.659523,1.547507 -1.541549,6.507037 -1.541549,8.100059"
       sodipodi:nodetypes="csc"
       transform="translate(-20.108333)" /><path
       style="fill:none;fill-opacity:1;stroke:#000000;stroke-width:0.577;stroke-linecap:round;stroke-linejoin:round;stroke-miterlimit:0;stroke-dasharray:0.577, 1.154;stroke-dashoffset:0;stroke-opacity:1"
       d="m 110.58952,28.361453 c -1.19844,1.394266 -1.85326,3.143199 -2.62097,4.789933 -0.80082,1.717751 -1.12949,3.594539 -1.54794,5.428083 0,0 -0.0381,0.09978 -0.0381,0.09978"
       id="path89"
       inkscape:path-effect="#path-effect89"
       inkscape:original-d="m 110.58952,28.361453 c -1.09471,1.1907 -2.05055,3.551635 -2.62097,4.789933 -1.06362,2.308984 -1.3922,5.14516 -1.58601,5.527864"
       sodipodi:nodetypes="csc"
       transform="translate(-14.816666)" /><rect
       style="fill:#cf0000;fill-opacity:0.531872;stroke:none;stroke-width:0.677;stroke-linecap:round;stroke-linejoin:round;stroke-miterlimit:0;stroke-dasharray:0.677, 2.031;stroke-dashoffset:0;stroke-opacity:1"
       id="rect90"
       width="2.328995"
       height="1.6836889"
       x="78.478119"
       y="37.341419"
       rx="0.058588151"
       ry="0.058588151" /><rect
       style="fill:#ff9898;fill-opacity:0.531872;stroke:none;stroke-width:0.677;stroke-linecap:round;stroke-linejoin:round;stroke-miterlimit:0;stroke-dasharray:0.677, 2.031;stroke-dashoffset:0;stroke-opacity:1"
       id="rect91"
       width="5.068327"
       height="1.6836889"
       x="73.656921"
       y="42.633087"
       rx="0.12749873"
       ry="0.12749873" /><rect
       style="fill:#cf0000;fill-opacity:0.531872;stroke:none;stroke-width:0.677;stroke-linecap:round;stroke-linejoin:round;stroke-miterlimit:0;stroke-dasharray:0.677, 2.031;stroke-dashoffset:0;stroke-opacity:1"
       id="rect92"
       width="1.5407298"
       height="1.6836889"
       x="73.715622"
       y="39.987255"
       rx="0.038758565"
       ry="0.038758565" /><g
       id="g1"
       transform="translate(-28.045835)"><text
         xml:space="preserve"
         transform="matrix(0.26458333,0,0,0.26458333,102.15813,22.088246)"
         id="text72"
         style="font-style:normal;font-variant:normal;font-weight:normal;font-stretch:normal;font-size:24px;line-height:0.62;font-family:'DIN Next W1G';-inkscape-font-specification:'DIN Next W1G';text-align:center;text-decoration-color:#000000;letter-spacing:-0.5px;word-spacing:0px;white-space:pre;shape-inside:url(#rect77);display:inline;fill:#000000;fill-opacity:1;stroke:none;stroke-width:1.80283;stroke-linecap:round;stroke-miterlimit:0;stroke-dasharray:none;stroke-opacity:1"
         x="214.40015"
         y="0"><tspan
           x="110.46747"
           y="104.86383"
           id="tspan46"><tspan
             style="font-weight:bold;font-size:21.3333px"
             id="tspan44">translation</tspan><tspan
             style="font-weight:bold"
             id="tspan45">
</tspan></tspan><tspan
           x="116.09604"
           y="119.74383"
           id="tspan48"><tspan
             style="font-weight:bold;font-size:16px"
             id="tspan47">+error spans
</tspan></tspan><tspan
           x="120.24004"
           y="134.62382"
           id="tspan50"><tspan
             dx="0 0 0.5 -0.5"
             style="font-weight:bold;font-size:16px"
             id="tspan49">+final score </tspan></tspan></text><g
         id="g77"
         transform="translate(22.22499)"><path
           style="fill:#dbdbdb;fill-opacity:1;stroke:#000000;stroke-width:0.477;stroke-linecap:round;stroke-linejoin:round;stroke-miterlimit:0;stroke-dasharray:none;stroke-opacity:1"
           d="m 116.114,32.156963 v 13.254528 h 10.47332 v -10.69583 l -2.5628,-2.562799 z"
           id="path72" /><path
           style="fill:#dbdbdb;fill-opacity:1;stroke:#000000;stroke-width:0.476779;stroke-linecap:round;stroke-linejoin:round;stroke-miterlimit:0;stroke-opacity:1"
           d="m 123.83365,32.270038 v 2.236253 h 2.49188"
           id="path73" /><path
           style="fill:none;fill-opacity:1;stroke:#000000;stroke-width:0.376999;stroke-linecap:round;stroke-linejoin:round;stroke-miterlimit:0;stroke-dasharray:none;stroke-dashoffset:0;stroke-opacity:1"
           d="m 48.799429,11.993338 c 0.03151,-0.04645 0.0636,-0.09248 0.09642,-0.138042 0.0207,-0.02873 0.047,-0.05288 0.07547,-0.07374 0.05544,-0.04061 0.119182,-0.06856 0.184641,-0.08856 0.08585,-0.02624 0.175026,-0.04013 0.26432,-0.04773 0.124969,-0.01064 0.250641,-0.0096 0.375821,-0.0036 0.165695,0.0079 0.33068,0.02577 0.495675,0.04234 0.07249,0.0073 0.144924,0.01624 0.217751,0.0187 0.0389,0.0013 0.07783,0.0015 0.11675,0.0023 0.15918,0.0032 0.31838,0.0071 0.477386,0.01533 0.07231,0.0037 0.144649,0.0078 0.216676,0.01539 0.04624,0.0049 0.09202,0.01314 0.13784,0.02084 0.326094,0.0548 0.649137,0.127544 0.97687,0.172426 0.175066,0.02398 0.351914,0.02953 0.528316,0.03516 0.10868,0.0035 0.217394,0.007 0.325881,0.01462 0.03912,0.0027 0.07805,-0.0066 0.114347,-0.02053 0.05124,-0.01964 0.09892,-0.04727 0.145529,-0.07595 0.08084,-0.04975 0.158879,-0.1046 0.244304,-0.146438 0.05018,-0.02458 0.103351,-0.04428 0.158982,-0.05204 0.03852,-0.0054 0.0776,-0.0013 0.115475,0.0068 0.07632,0.01643 0.148307,0.04737 0.220896,0.07525 0.04718,0.01812 0.09518,0.03441 0.14453,0.04565 0.113019,0.02572 0.230048,0.02969 0.345315,0.02085 0.135928,-0.01043 0.269891,-0.03783 0.401926,-0.07097 0.146584,-0.03678 0.291045,-0.08133 0.436866,-0.120923 0.06609,-0.01794 0.133736,-0.02909 0.200451,-0.04431 0.05411,-0.01235 0.108029,-0.02692 0.158956,-0.04939 0.04071,-0.01796 0.07684,-0.04477 0.109201,-0.0751 0.03229,-0.03026 0.06236,-0.06297 0.09708,-0.09056"
           id="path74"
           inkscape:path-effect="#path-effect78"
           inkscape:original-d="m 48.799429,11.993338 c 0.03083,-0.04546 0.0946,-0.1415 0.123664,-0.170558 0.315896,-0.315899 1.225806,-0.136484 1.595186,-0.119653 0.0056,2.54e-4 0.656825,0.0085 0.849021,0.03867 0.352952,0.05546 0.700098,0.134782 1.054376,0.185349 0.285059,0.04069 0.579617,0.03116 0.867566,0.05165 0.212465,0.01512 0.482997,-0.332192 0.742497,-0.294655 0.129564,0.01874 0.247087,0.08756 0.373753,0.120628 0.394166,0.10291 0.849043,-0.0678 1.220645,-0.166581 0.114721,-0.03049 0.271148,-0.04678 0.3762,-0.104079 0.0752,-0.04102 0.115533,-0.10077 0.180758,-0.152948"
           transform="translate(68.79167,26.458334)" /><path
           style="fill:none;fill-opacity:1;stroke:#000000;stroke-width:0.376999;stroke-linecap:round;stroke-linejoin:round;stroke-miterlimit:0;stroke-dasharray:none;stroke-dashoffset:0;stroke-opacity:1"
           d="m 48.971845,14.051667 c 0.03431,0.05211 0.07641,0.09993 0.12814,0.135387 0.04402,0.03017 0.0949,0.04922 0.147164,0.05949 0.04011,0.0079 0.0811,0.0076 0.121798,0.0092 0.04938,0.002 0.09866,0.0099 0.148193,0.006 0.04329,-0.0034 0.08358,-0.02117 0.122244,-0.03969 0.05909,-0.0283 0.116239,-0.06039 0.173788,-0.09163 0.07313,-0.0397 0.146292,-0.07979 0.223094,-0.112008 0.04289,-0.01799 0.08689,-0.03437 0.132822,-0.04256 0.03528,-0.0063 0.0727,-0.0063 0.106373,0.0081 0.04109,0.01757 0.07836,0.04276 0.114003,0.06943 0.05742,0.04295 0.11079,0.09096 0.167369,0.134972 0.03568,0.02776 0.07443,0.05115 0.112486,0.07543 0.142332,0.09078 0.287729,0.177397 0.440035,0.250489 0.09544,0.0458 0.19346,0.08697 0.295209,0.116561 0.07565,0.022 0.153536,0.03815 0.23248,0.04052 0.05507,0.0017 0.110663,-0.0042 0.163462,-0.02053 0.12165,-0.03766 0.237728,-0.09093 0.351509,-0.147644 0.145605,-0.07257 0.288279,-0.151484 0.43843,-0.214549 0.104108,-0.04373 0.212142,-0.07945 0.323681,-0.09834 0.03595,-0.0061 0.07223,-0.0099 0.108575,-0.01283 0.03561,-0.0028 0.06883,0.01584 0.09419,0.03938 0.02787,0.02587 0.05014,0.05702 0.07094,0.08866 0.04026,0.06123 0.07458,0.126447 0.119269,0.18469 0.02299,0.02996 0.04912,0.05814 0.08089,0.07908 0.03337,0.02199 0.07591,0.03045 0.114534,0.01978 0.04228,-0.01168 0.0832,-0.02805 0.122752,-0.04693 0.09515,-0.04543 0.181799,-0.106705 0.263159,-0.173347 0.110889,-0.09083 0.213054,-0.191511 0.318508,-0.288431 0.02253,-0.0207 0.04589,-0.04047 0.06601,-0.06377 0.02348,-0.0272 0.04426,-0.05879 0.07632,-0.0766 0.01296,-0.0072 0.03383,-0.01957 0.04299,-0.0078 0.01576,0.02032 0.02927,0.04239 0.04357,0.06378 0.06609,0.09885 0.134133,0.196646 0.209911,0.288366 0.03955,0.04787 0.08055,0.0949 0.127104,0.136111 0.02894,0.02562 0.06,0.04974 0.09572,0.06521 0.0336,0.01455 0.07087,0.02006 0.107306,0.01666 0.04605,-0.0043 0.08993,-0.02131 0.130494,-0.04283 0.06013,-0.03191 0.114592,-0.07309 0.169301,-0.113297 0.04297,-0.03158 0.08557,-0.06419 0.132605,-0.08954 0.01986,-0.01071 0.04004,-0.02182 0.06205,-0.02711 0.0198,-0.0048 0.0388,0.0068 0.05256,0.02006 0.02988,0.02879 0.04799,0.06868 0.08151,0.09356 0.04758,0.03531 0.104613,0.05607 0.162606,0.0664 0.07456,0.01329 0.150758,0.01126 0.226027,0.0066 0.07328,-0.0045 0.146398,-0.01271 0.219883,-0.01292"
           id="path75"
           inkscape:path-effect="#path-effect80"
           inkscape:original-d="m 48.971845,14.051667 c 0.09494,0.143935 0.210958,0.203712 0.37782,0.203712 0.06837,0 0.138961,0.0173 0.205107,0 0.159142,-0.04161 0.548937,-0.336218 0.710052,-0.275636 0.113104,0.04253 0.238051,0.176373 0.334148,0.238753 0.278389,0.180716 0.848645,0.540214 1.196636,0.433873 0.418142,-0.12778 0.779079,-0.445291 1.227092,-0.474872 0.18614,-0.01229 0.254781,0.48134 0.49076,0.408585 0.288928,-0.08908 0.512813,-0.348348 0.72903,-0.537305 0.04763,-0.04162 0.08746,-0.127442 0.149765,-0.11654 0.0066,0.0011 0.277281,0.446474 0.455737,0.543493 0.219546,0.11936 0.434136,-0.182733 0.616921,-0.244636 0.05834,-0.01976 0.09377,0.08018 0.144158,0.11562 0.169551,0.119257 0.413846,0.0566 0.603835,0.0566"
           transform="translate(68.79167,26.458334)" /><path
           style="fill:none;fill-opacity:1;stroke:#000000;stroke-width:0.376999;stroke-linecap:round;stroke-linejoin:round;stroke-miterlimit:0;stroke-dasharray:none;stroke-dashoffset:0;stroke-opacity:1"
           d="m 49.172807,16.740448 c 0.155835,0.01032 0.312235,5.68e-4 0.467238,-0.0165 0.22913,-0.02523 0.456301,-0.06972 0.686712,-0.0815 0.02483,-0.0013 0.04956,-0.0035 0.07428,-0.0064 0.164557,-0.01875 0.32974,-0.03277 0.495284,-0.03856 0.115495,-0.004 0.231269,-0.0048 0.346607,0.0032 0.07306,0.0051 0.146265,0.01249 0.217667,0.02911 0.04842,0.01127 0.09788,0.02381 0.14049,0.04996 0.03664,0.02248 0.06314,0.05763 0.08558,0.09356 0.02851,0.04565 0.05106,0.09487 0.08181,0.139132 0.0221,0.03181 0.05011,0.06314 0.08813,0.07454 0.04926,0.01477 0.09993,0.02458 0.150916,0.03105 0.114853,0.01459 0.230957,0.01187 0.346376,0.0076 0.127133,-0.0048 0.254695,-0.01177 0.381719,-9.03e-4 0.06368,0.0054 0.12698,0.01592 0.188754,0.03248 0.164466,0.04408 0.322857,0.108745 0.488935,0.147142 0.05761,0.01332 0.116092,0.02306 0.175068,0.02776 0.133694,0.01067 0.267992,-3.26e-4 0.401743,0.0095 0.06906,0.0051 0.137966,0.01526 0.207383,0.01315 0.04868,-0.0015 0.09739,-0.0098 0.142931,-0.02724 0.0583,-0.02229 0.11391,-0.05122 0.167018,-0.0839 0.09917,-0.06103 0.189784,-0.134701 0.277672,-0.210774 0.07556,-0.0654 0.149589,-0.132539 0.225808,-0.197184 0.222342,-0.188584 0.44067,-0.381998 0.652244,-0.582589 0.04219,-0.04 0.08165,-0.08284 0.118206,-0.128036 0.02788,-0.03447 0.05804,-0.06735 0.08276,-0.104151 0.0051,-0.0076 0.0087,-0.01677 0.01632,-0.02231 0,0 0.0084,-0.0012 0.0084,-0.0012 0.02634,0.01009 0.04833,0.02869 0.06941,0.04689 0.04374,0.03776 0.08415,0.07922 0.122931,0.121998 0.05897,0.06506 0.115038,0.132921 0.165359,0.204907 0.02942,0.04209 0.05836,0.08496 0.07996,0.131635 0.01193,0.02578 0.02374,0.05288 0.02453,0.0817"
           id="path76"
           inkscape:path-effect="#path-effect82"
           inkscape:original-d="m 49.172807,16.740448 c 0.40201,0.02649 0.793316,-0.07905 1.191236,-0.100217 0.02281,-0.0012 0.921411,-0.121163 1.225621,0.03313 0.124966,0.06338 0.14669,0.279407 0.27278,0.315432 0.3404,0.09726 0.708009,-0.02455 1.052672,0.06591 0.197588,0.05186 0.389241,0.136235 0.592812,0.168024 0.157236,0.02455 0.306525,0.0077 0.463285,0.01754 0.135496,0.0085 0.248015,0.03643 0.381693,-0.0176 0.24369,-0.0985 0.447757,-0.309063 0.642078,-0.473518 0.227055,-0.192157 0.443537,-0.38512 0.659966,-0.588322 0.08914,-0.08369 0.132839,-0.144028 0.20615,-0.235666 0.0082,-0.01024 0.01535,-0.03184 0.02781,-0.02781 0.09373,0.03033 0.462192,0.452134 0.462192,0.587125"
           transform="translate(68.79167,26.458334)" /><path
           style="fill:none;fill-opacity:1;stroke:#000000;stroke-width:0.376999;stroke-linecap:round;stroke-linejoin:round;stroke-miterlimit:0;stroke-dasharray:none;stroke-dashoffset:0;stroke-opacity:1"
           d="m 48.891898,9.8314448 c 0.02656,-0.059369 0.06243,-0.1150723 0.108731,-0.1609935 0.03705,-0.03675 0.08131,-0.066828 0.130628,-0.084468 0.0418,-0.01495 0.08701,-0.019981 0.131131,-0.015097 0.05124,0.00567 0.09998,0.025069 0.14473,0.050231 0.03576,0.020104 0.06534,0.049972 0.08805,0.083938 0.03002,0.044905 0.04844,0.09624 0.06393,0.1476928 0.0086,0.028696 0.01204,0.05922 0.02452,0.086495 0.0025,0.00536 0.0044,0.012151 0.01012,0.015025 0,0 0.0058,-9.868e-4 0.0058,-9.868e-4 0.03119,-0.021385 0.05962,-0.046453 0.08788,-0.071496 0.06009,-0.053244 0.118513,-0.1085827 0.182412,-0.1573092 0.02941,-0.022431 0.05965,-0.044278 0.09303,-0.060401 0.02584,-0.012477 0.05477,-0.023884 0.08386,-0.018555 0.03216,0.00589 0.05925,0.025666 0.08442,0.045363 0.02948,0.02307 0.05738,0.04844 0.08959,0.067784 0.02117,0.012712 0.04507,0.020826 0.06995,0.022577 0.06837,0.00481 0.137432,0.00568 0.205416,-0.00429 0.04448,-0.00652 0.08803,-0.018515 0.130209,-0.033989 0.04939,-0.01812 0.09745,-0.039572 0.146139,-0.059446 0.04114,-0.016794 0.08262,-0.032845 0.124793,-0.046867 0.03456,-0.011489 0.07187,-0.00975 0.107378,-0.00452 0.05054,0.00745 0.09963,0.022041 0.148775,0.035596 0.03701,0.010209 0.07396,0.0218 0.112174,0.026281 0.0329,0.00386 0.06613,0.00456 0.09922,0.00352 0.06432,-0.00202 0.128137,-0.012857 0.190241,-0.029451 0.08124,-0.021706 0.159711,-0.052266 0.23797,-0.082717 0.04272,-0.016621 0.08589,-0.032062 0.128424,-0.049143 0.03393,-0.013624 0.06608,-0.031213 0.09817,-0.048621 0.07575,-0.041092 0.150501,-0.083968 0.225232,-0.126866 0.101977,-0.058538 0.203403,-0.1180467 0.306022,-0.1754561 0.03875,-0.02168 0.07712,-0.044178 0.117128,-0.06347 0.0118,-0.00569 0.02346,-0.011956 0.03609,-0.015634 0,0 0.004,-2.203e-4 0.004,-2.203e-4 0.04032,0.017029 0.07253,0.048666 0.09766,0.083859 0.03112,0.043577 0.05381,0.092283 0.07896,0.1393529 0.02114,0.039557 0.04332,0.079484 0.07489,0.1117335 0.02234,0.022825 0.04819,0.041894 0.07429,0.060136 0.08416,0.058816 0.178531,0.1020702 0.276383,0.1325394 0.107286,0.033406 0.218907,0.052163 0.331014,0.058497 0.02793,0.00158 0.0559,0.00237 0.08387,0.00237"
           id="path77"
           inkscape:path-effect="#path-effect84"
           inkscape:original-d="m 48.891898,9.8314448 c 0.09288,-0.2080133 0.291614,-0.3441592 0.520581,-0.2071669 0.158388,0.094765 0.154155,0.3510941 0.187045,0.3290028 0.103915,-0.0698 0.31305,-0.3071162 0.4314,-0.3089934 0.08479,-0.00135 0.15928,0.1293548 0.252786,0.136443 0.298842,0.022654 0.348229,-0.053707 0.613516,-0.144081 0.1035,-0.035259 0.278471,0.050908 0.38355,0.058991 0.230958,0.017767 0.400701,-0.070807 0.640631,-0.1594263 0.108005,-0.039894 0.762823,-0.4405048 0.786691,-0.4302665 0.137845,0.059132 0.160668,0.2612803 0.271277,0.3534553 0.204549,0.170457 0.493792,0.2350349 0.745797,0.2350349"
           transform="translate(68.79167,26.458334)" /></g><rect
         style="fill:#cf0000;fill-opacity:0.531872;stroke:none;stroke-width:0.677;stroke-linecap:round;stroke-linejoin:round;stroke-miterlimit:0;stroke-dasharray:0.677, 2.031;stroke-dashoffset:0;stroke-opacity:1"
         id="rect95"
         width="2.328995"
         height="1.6836889"
         x="145.15327"
         y="37.341419"
         rx="0.058588151"
         ry="0.058588151" /><rect
         style="fill:#ff9898;fill-opacity:0.531872;stroke:none;stroke-width:0.677;stroke-linecap:round;stroke-linejoin:round;stroke-miterlimit:0;stroke-dasharray:0.677, 2.031;stroke-dashoffset:0;stroke-opacity:1"
         id="rect96"
         width="3.975198"
         height="1.6836889"
         x="141.91956"
         y="42.633087"
         rx="0.1"
         ry="0.1" /><text
         xml:space="preserve"
         transform="matrix(0.26458333,0,0,0.26458333,-51.858342,1.0583331)"
         id="text96"
         style="font-style:normal;font-variant:normal;font-weight:normal;font-stretch:normal;font-size:16px;line-height:0.62;font-family:'DIN Next W1G';-inkscape-font-specification:'DIN Next W1G';text-align:center;text-decoration-color:#000000;letter-spacing:-0.5px;word-spacing:0px;white-space:pre;shape-inside:url(#rect97);display:inline;fill:#ff9898;fill-opacity:0.531872;stroke:none;stroke-width:2.55874;stroke-linecap:round;stroke-linejoin:round;stroke-miterlimit:0;stroke-dasharray:2.55874, 7.67622;stroke-dashoffset:0;stroke-opacity:1"><tspan
           x="765.69189"
           y="144.81352"
           id="tspan52"><tspan
             style="font-weight:bold;fill:#000000;fill-opacity:1"
             id="tspan51">61
</tspan></tspan></text><path
         style="fill:none;fill-opacity:1;stroke:#000000;stroke-width:0.80331;stroke-linecap:round;stroke-linejoin:round;stroke-miterlimit:0;stroke-dasharray:none;stroke-dashoffset:0;stroke-opacity:1"
         d="m 201.8988,39.818947 c 1.96718,0 3.93436,0 5.90154,0"
         id="path97"
         inkscape:path-effect="#path-effect97"
         inkscape:original-d="m 201.8988,39.818947 h 5.90154"
         transform="matrix(0.71024925,0,0,1,7.4969775,0.52916643)" /><path
         style="fill:none;fill-opacity:1;stroke:#000000;stroke-width:0.80331;stroke-linecap:round;stroke-linejoin:round;stroke-miterlimit:0;stroke-dasharray:none;stroke-dashoffset:0;stroke-opacity:1"
         d="m 201.8988,39.818947 c 1.96718,0 3.93436,0 5.90154,0"
         id="path98"
         inkscape:path-effect="#path-effect99"
         inkscape:original-d="m 201.8988,39.818947 h 5.90154"
         transform="matrix(0.71024925,0,0,1,7.4969775,1.5874995)" /></g><rect
       style="fill:#ff9898;fill-opacity:0.531872;stroke:none;stroke-width:0.677;stroke-linecap:round;stroke-linejoin:round;stroke-miterlimit:0;stroke-dasharray:0.677, 2.031;stroke-dashoffset:0;stroke-opacity:1"
       id="rect99"
       width="3.3398063"
       height="1.6836889"
       x="75.350647"
       y="35.224751"
       rx="0.0840161"
       ry="0.0840161" /><circle
       style="fill:#949cd3;fill-opacity:1;stroke:#000464;stroke-width:0.358514;stroke-linecap:round;stroke-miterlimit:0;stroke-dasharray:none;stroke-dashoffset:0;stroke-opacity:1"
       id="path18"
       cx="61.037441"
       cy="35.597069"
       r="2.3261576" /><g
       id="g18"
       transform="matrix(0.75318099,0,0,0.75318099,14.421791,9.6486764)"
       style="fill:#000464;fill-opacity:1"><text
         xml:space="preserve"
         style="font-size:5.29167px;line-height:0.92;font-family:'Noto Sans';-inkscape-font-specification:'Noto Sans';text-align:end;text-decoration-color:#000000;letter-spacing:-0.132292px;word-spacing:0px;text-anchor:end;white-space:pre;fill:#000464;fill-opacity:1;stroke:#006418;stroke-width:0.476001;stroke-linecap:round;stroke-miterlimit:0;stroke-dasharray:0.476001, 1.428;stroke-dashoffset:0;stroke-opacity:1"
         x="63.293514"
         y="36.339745"
         id="text18"><tspan
           sodipodi:role="line"
           id="tspan18"
           style="font-style:italic;font-weight:bold;fill:#000464;fill-opacity:1;stroke:none;stroke-width:0.476"
           x="63.161221"
           y="36.339745">1</tspan></text></g><circle
       style="fill:#949cd3;fill-opacity:1;stroke:#000464;stroke-width:0.358514;stroke-linecap:round;stroke-miterlimit:0;stroke-dasharray:none;stroke-dashoffset:0;stroke-opacity:1"
       id="circle19"
       cx="95.96244"
       cy="35.597069"
       r="2.3261576" /><g
       id="g21"
       transform="matrix(0.75318099,0,0,0.75318099,49.346792,9.6486764)"
       style="fill:#000464;fill-opacity:1"><text
         xml:space="preserve"
         style="font-size:5.29167px;line-height:0.92;font-family:'Noto Sans';-inkscape-font-specification:'Noto Sans';text-align:end;text-decoration-color:#000000;letter-spacing:-0.132292px;word-spacing:0px;text-anchor:end;white-space:pre;fill:#000464;fill-opacity:1;stroke:#006418;stroke-width:0.476001;stroke-linecap:round;stroke-miterlimit:0;stroke-dasharray:0.476001, 1.428;stroke-dashoffset:0;stroke-opacity:1"
         x="63.293514"
         y="36.339745"
         id="text21"><tspan
           sodipodi:role="line"
           id="tspan19"
           style="font-style:italic;font-weight:bold;fill:#000464;fill-opacity:1;stroke:none;stroke-width:0.476"
           x="63.161221"
           y="36.339745">2</tspan></text></g></g></svg>
